<svg width="247" height="170" viewBox="0 0 247 170" fill="none" xmlns="http://www.w3.org/2000/svg">
<path d="M0 0.0499992H23.82L31.16 95.82L39.6 0.0499992H87.16L87.01 148.05C87.01 152.46 88.72 154.37 91.46 154.37C95.13 154.37 95.65 150.84 95.65 147.9L95.86 0H137.46L149.73 98.61L148.45 0H164.06V167.9H147.16L131.66 56.9L133.58 167.5H118.18V161.81L114.02 3.41L113.71 3.32L113.45 3.26L113.25 3.22L113.08 3.19L112.65 3.12L112.43 3.09L112.12 3.05L111.78 3.01L111.55 3L111.22 2.97L111.1 2.96L113.65 3.11V145.21C113.65 160.54 106.76 169.11 91.46 169.11C78.1 169.11 68.95 161.99 68.95 147.52L68.43 3.82L68.25 3.83L67.97 3.85L67.65 3.88L67.09 3.95L66.78 3.99L66.41 4.05L66.15 4.1L65.83 4.16L65.35 4.27L64.47 4.53L64.13 167.53H47.23L48.51 42.73L37.3 167.53H24.59L12.75 42.73L14.56 167.53H0V0.0300026V0.0499992Z" fill="#D2D9D8"/>
<path d="M167.94 0.050293H215.76L222.89 69.8503L230.33 0.050293H246.26L231.8 98.6603V167.61H212.09V98.2503L201.28 24.8803L185.57 154.58L205.07 154.37V167.69H166.5V160.77L184.85 13.5703L167.94 13.7803V0.130295V0.050293Z" fill="#D2D9D8"/>
</svg>
