<svg width="250" height="200" viewBox="0 0 250 200" fill="none" xmlns="http://www.w3.org/2000/svg">
<path d="M2 15.05H25.82L33.16 110.82L41.6 15.05H89.16L89.01 163.05C89.01 167.46 90.72 169.37 93.46 169.37C97.13 169.37 97.65 165.84 97.65 162.9L97.86 15H139.46L151.73 113.61L150.45 15H166.06V182.9H149.16L133.66 71.9L135.58 182.5H120.18V176.81L116.02 18.41L115.71 18.32L115.45 18.26L115.25 18.22L115.08 18.19L114.65 18.12L114.43 18.09L114.12 18.05L113.78 18.01L113.55 18L113.22 17.97L113.1 17.96L115.65 18.11V160.21C115.65 175.54 108.76 184.11 93.46 184.11C80.1 184.11 70.95 176.99 70.95 162.52L70.43 18.82L70.25 18.83L69.97 18.85L69.65 18.88L69.09 18.95L68.78 18.99L68.41 19.05L68.15 19.1L67.83 19.16L67.35 19.27L66.47 19.53L66.13 182.53H49.23L50.51 57.73L39.3 182.53H26.59L14.75 57.73L16.56 182.53H2V15.03V15.05Z" fill="white"/>
<path d="M169.94 15.0503H217.76L224.89 84.8503L232.33 15.0503H248.26L233.8 113.66V182.61H214.09V113.25L203.28 39.8803L187.57 169.58L207.07 169.37V182.69H168.5V175.77L186.85 28.5703L169.94 28.7803V15.1303V15.0503Z" fill="white"/>
</svg>
