<svg width="16" height="16" viewBox="0 0 16 16" fill="none" xmlns="http://www.w3.org/2000/svg">
<path d="M8.0804 1.3999C8.13896 1.3999 8.18624 1.4037 8.23744 1.41639C8.2832 1.42773 8.32872 1.44553 8.38352 1.46787C8.62912 1.52155 8.83544 1.71184 8.97872 1.96365C9.0404 1.89249 9.11544 1.82931 9.20888 1.78646C9.36144 1.71651 9.54488 1.70863 9.76488 1.77881L9.80928 1.79389L9.81104 1.79443L9.81264 1.79513C9.93688 1.84392 10.033 1.95063 10.0991 2.06857C10.1374 2.13689 10.168 2.21312 10.1893 2.29264C10.2577 2.24513 10.3452 2.19822 10.4431 2.16076C10.6087 2.09741 10.8195 2.05487 11.0469 2.08545L11.0926 2.09256L11.0935 2.09272L11.0944 2.09287C11.723 2.21406 11.9674 2.75449 11.9871 3.19779C12.034 3.19058 12.0834 3.18521 12.1332 3.18264C12.2403 3.17709 12.3592 3.18363 12.461 3.21795L12.487 3.22646C12.6155 3.27044 12.717 3.33383 12.7926 3.41506C12.8736 3.50204 12.9194 3.60367 12.9405 3.70936C12.9714 3.86475 12.9489 4.03042 12.908 4.18193C13.2214 4.22505 13.4442 4.31662 13.6056 4.4599C13.791 4.62441 13.8784 4.84245 13.9434 5.07764H13.9433C13.957 5.12297 13.9598 5.17587 13.9574 5.2267C13.9548 5.28176 13.9455 5.34369 13.9298 5.40826C13.9096 5.49139 13.8778 5.58205 13.833 5.67115C13.8605 5.67814 13.8901 5.68573 13.9206 5.69365C14.0826 5.73172 14.2073 5.84655 14.2912 5.971C14.376 6.09682 14.4294 6.24693 14.4403 6.37881L14.441 6.386L14.4406 6.39318C14.4361 6.51283 14.394 6.64279 14.3243 6.75615C14.2862 6.81821 14.2382 6.87758 14.181 6.92865C14.3918 7.04811 14.6644 7.29514 14.7317 7.73405L14.7318 7.7349L14.7318 7.73576C14.7804 8.0851 14.6991 8.35262 14.545 8.56126C14.4291 8.71814 14.2757 8.83646 14.1195 8.93222C14.2313 9.06414 14.3378 9.26382 14.3323 9.50894L14.3322 9.5159L14.3313 9.5227C14.3006 9.74478 14.2246 9.9147 14.0929 10.0358C13.9971 10.124 13.8797 10.179 13.7478 10.2139C13.805 10.3597 13.8559 10.5082 13.8754 10.6526C13.9014 10.8463 13.872 11.0397 13.7305 11.2174C13.5989 11.4159 13.4457 11.5406 13.2757 11.6119C13.166 11.658 13.053 11.68 12.9403 11.688C12.9991 11.8391 13.0258 11.9914 12.9991 12.142C12.9684 12.3155 12.8698 12.4697 12.7048 12.6072L12.7043 12.6076C12.5553 12.7302 12.3711 12.7709 12.1987 12.7608C12.0986 12.7549 11.9995 12.7317 11.9087 12.6953C11.8952 12.811 11.8672 12.921 11.816 13.0293C11.7378 13.1949 11.6103 13.3467 11.4199 13.5076C11.2591 13.6615 11.0462 13.699 10.8454 13.6806C10.7007 13.6673 10.5548 13.6245 10.4226 13.568C10.3147 13.9829 9.92 14.2642 9.47512 14.2217L9.47376 14.2216C9.26992 14.1996 9.10776 14.1125 9.00296 13.9813C8.85208 14.1733 8.63328 14.3182 8.39912 14.4501C8.3348 14.4876 8.266 14.5207 8.18832 14.5367C8.11616 14.5516 8.04184 14.5505 7.96117 14.5314C7.79655 14.5566 7.57209 14.5467 7.385 14.4347L7.38187 14.4328L7.3789 14.4308C7.2425 14.3375 7.04267 14.1493 6.92054 13.8971C6.87875 13.9385 6.83105 13.9754 6.78039 14.0063C6.63795 14.0931 6.45343 14.1457 6.26164 14.122C6.26081 14.1219 6.25997 14.1218 6.25914 14.1217C6.25863 14.1217 6.25809 14.1217 6.25757 14.1216C5.93771 14.0891 5.72735 13.8169 5.6632 13.4917C5.32599 13.6734 4.99785 13.7732 4.61633 13.6133C4.37394 13.5325 4.22187 13.3535 4.13734 13.1431C4.07617 12.9908 4.04925 12.8201 4.04617 12.6511C3.97629 12.6703 3.90538 12.6814 3.8368 12.6847C3.70864 12.6907 3.57899 12.6698 3.47625 12.6149L3.47249 12.6129L3.46883 12.6106C3.2726 12.4869 3.12842 12.3274 3.06383 12.1301C3.01461 11.9797 3.01485 11.8173 3.06203 11.6466C2.77165 11.6361 2.54199 11.591 2.37836 11.4433C2.14446 11.2333 2.01217 11.0064 1.98437 10.7597C1.96301 10.5701 2.00494 10.3807 2.09257 10.1924C1.72654 10.1508 1.52313 9.84702 1.47797 9.51302L1.47718 9.50702L1.47695 9.50094C1.47272 9.37214 1.50123 9.22646 1.56078 9.09622C1.59532 9.0207 1.64194 8.94686 1.7018 8.88414C1.39649 8.65406 1.26287 8.32702 1.2432 7.94467L1.24328 7.94459C1.20999 7.48398 1.44305 7.13785 1.75929 6.92013C1.69593 6.83382 1.65019 6.72776 1.62336 6.6231C1.58126 6.4589 1.57694 6.26612 1.64914 6.11193L1.67078 6.06685C1.72167 5.96423 1.77632 5.87986 1.85977 5.81841C1.93878 5.76023 2.03341 5.73029 2.14867 5.70928C2.09545 5.61417 2.04569 5.50191 2.01242 5.38451C1.97317 5.246 1.95377 5.0903 1.98726 4.9449L1.99461 4.916C2.07505 4.61935 2.21589 4.42062 2.41742 4.30162C2.56549 4.2142 2.73697 4.17554 2.92117 4.16318L2.91257 4.14436L2.91008 4.13889L2.90813 4.13318C2.84918 3.95916 2.88492 3.75931 2.97359 3.59107C3.06315 3.42119 3.21433 3.26811 3.41016 3.18936L3.41195 3.18857L3.41383 3.18795C3.54187 3.14126 3.67246 3.15334 3.79141 3.18592C3.85263 3.20269 3.91375 3.22581 3.97328 3.25146C4.00989 2.97254 4.15668 2.69305 4.34156 2.47451C4.53536 2.24544 4.79082 2.06045 5.03953 2.02521C5.31432 1.97053 5.55689 2.07012 5.7857 2.25092C5.81715 2.16041 5.85737 2.06707 5.91945 1.98506C6.02999 1.83904 6.19954 1.73721 6.47172 1.69474C6.60021 1.66637 6.72873 1.71285 6.83757 1.78037C6.91373 1.82761 6.98854 1.89028 7.05961 1.96146C7.123 1.8807 7.20409 1.78941 7.30797 1.70537C7.40288 1.60979 7.55637 1.5357 7.69211 1.48623C7.83188 1.43529 7.98229 1.3999 8.07608 1.3999H8.0804Z" fill="#111111"/>
<path d="M8.08038 1.27979C8.14469 1.27979 8.20242 1.28397 8.26624 1.29979C8.31841 1.31271 8.36849 1.33228 8.41968 1.35307C8.65745 1.40845 8.85416 1.5696 9.00077 1.77564C9.0474 1.73808 9.09974 1.70438 9.15882 1.67729L9.19397 1.66229C9.3596 1.5966 9.54774 1.59238 9.75632 1.65088L9.80132 1.66439L9.80233 1.66471L9.80343 1.6651L9.8446 1.67908L9.8464 1.67963L9.85304 1.68166L9.85929 1.68447L9.86093 1.68518C10.018 1.74845 10.1307 1.8794 10.2037 2.00979L10.2196 2.03924C10.2322 2.06348 10.2437 2.08846 10.2544 2.11393C10.3 2.09032 10.3489 2.06816 10.4002 2.04854C10.5688 1.98406 10.7826 1.93852 11.0159 1.96096L11.0628 1.96643L11.0653 1.96674L11.111 1.97385L11.1116 1.974L11.1123 1.97408L11.1132 1.97424L11.1139 1.97432L11.1148 1.97447L11.1159 1.97471L11.1171 1.97494C11.7585 2.09863 12.0358 2.61424 12.0955 3.06471C12.106 3.06394 12.1164 3.06322 12.1269 3.06268C12.241 3.05676 12.3765 3.06295 12.4983 3.10377L12.5244 3.11229L12.5251 3.11252L12.5259 3.11283C12.6696 3.16202 12.7891 3.23506 12.8805 3.33322C12.9786 3.43862 13.0333 3.56134 13.0581 3.6858C13.0848 3.82003 13.0767 3.95714 13.0532 4.08432C13.3183 4.1359 13.5254 4.22816 13.6852 4.37002C13.8971 4.55808 13.9922 4.80398 14.059 5.04557L14.1009 5.19752H14.0781C14.0781 5.20943 14.0778 5.22103 14.0773 5.23221V5.23236C14.0742 5.29613 14.0636 5.36565 14.0464 5.43643C14.0343 5.48612 14.0183 5.53819 13.9985 5.59104C14.1742 5.64825 14.3047 5.77633 14.3906 5.90377L14.3907 5.90385C14.4858 6.04498 14.5469 6.21422 14.5598 6.36807L14.5605 6.37525L14.5612 6.38322L14.5605 6.39752L14.5605 6.3976C14.5551 6.54048 14.5055 6.69028 14.4265 6.81885C14.4083 6.84845 14.3879 6.8776 14.3657 6.90588C14.5709 7.05749 14.7887 7.31455 14.8502 7.71572L14.8508 7.71924L14.8511 7.72252C14.9028 8.09983 14.8145 8.39803 14.6414 8.63236C14.5415 8.7676 14.4181 8.87492 14.2915 8.96299C14.3834 9.10441 14.4572 9.29109 14.4523 9.5115L14.4521 9.51853L14.4519 9.52486L14.4512 9.53119L14.4502 9.53799L14.4501 9.539C14.4169 9.77949 14.3321 9.9785 14.1741 10.1239C14.0937 10.1979 14.002 10.2508 13.9041 10.289C13.9442 10.4017 13.9784 10.5192 13.9942 10.6365C14.0234 10.8533 13.991 11.0801 13.8275 11.2878C13.6849 11.5014 13.5149 11.6415 13.322 11.7224L13.3221 11.7224C13.2479 11.7536 13.1729 11.7746 13.0985 11.7885C13.1294 11.9098 13.1399 12.0354 13.1173 12.1628C13.0805 12.3705 12.9629 12.5483 12.7816 12.6993L12.7805 12.7001C12.603 12.8462 12.3869 12.8919 12.1917 12.8805C12.1279 12.8767 12.0646 12.8666 12.0034 12.8513C11.9857 12.9285 11.9603 13.0047 11.9244 13.0805C11.8368 13.266 11.6967 13.4303 11.4995 13.5973C11.3176 13.7693 11.0857 13.8146 10.8762 13.8031L10.8344 13.8C10.7189 13.7894 10.6043 13.7618 10.4965 13.7247C10.3329 14.1248 9.92293 14.383 9.46796 14.3413L9.46663 14.3413L9.46374 14.3411L9.46085 14.3408C9.28311 14.3216 9.12801 14.2578 9.00788 14.1569C8.85194 14.3175 8.65583 14.4429 8.45944 14.5535L8.45952 14.5536C8.39876 14.5891 8.32862 14.6243 8.2478 14.6458L8.21249 14.6541C8.12942 14.6712 8.04502 14.6708 7.95694 14.653C7.77761 14.6766 7.53372 14.6634 7.32335 14.5375L7.32272 14.5372L7.32218 14.5368L7.31905 14.5349L7.31687 14.5336L7.31476 14.5322L7.31179 14.5302L7.31108 14.5297C7.18648 14.4445 7.01609 14.2892 6.88562 14.0808C6.87156 14.0905 6.8573 14.0999 6.8428 14.1087C6.68142 14.207 6.47128 14.2677 6.25015 14.2413C6.24937 14.2412 6.24839 14.2411 6.24749 14.241C6.24729 14.241 6.24706 14.241 6.24686 14.241C6.24634 14.2409 6.24584 14.2409 6.24538 14.2408C5.90997 14.2067 5.68701 13.9589 5.58593 13.6651C5.27668 13.8105 4.94863 13.881 4.57405 13.7256C4.29374 13.6305 4.12007 13.4221 4.02593 13.1878C3.97588 13.0631 3.94723 12.9294 3.93429 12.796C3.90349 12.8001 3.87282 12.803 3.84249 12.8045H3.84233C3.69952 12.8112 3.5468 12.7885 3.41968 12.7206L3.41882 12.7203L3.41804 12.7198L3.41429 12.7177L3.41202 12.7164L3.40983 12.7151L3.40616 12.7129L3.40476 12.712C3.19209 12.5778 3.02536 12.3983 2.94976 12.1673C2.90671 12.0357 2.89677 11.8982 2.9164 11.7578C2.67784 11.7373 2.46327 11.6815 2.29811 11.5325L2.25257 11.4902C2.03043 11.277 1.89502 11.0389 1.86507 10.773C1.84612 10.6048 1.87127 10.4398 1.92749 10.2796C1.58571 10.1722 1.40251 9.85096 1.35897 9.529L1.3589 9.52846L1.35811 9.52244L1.35741 9.51697L1.35726 9.5115L1.35702 9.50541L1.35694 9.50478C1.35208 9.3569 1.38459 9.1928 1.45163 9.04619C1.47415 8.99694 1.5016 8.94769 1.53429 8.90057C1.26175 8.65076 1.14228 8.31871 1.12335 7.95072L1.12054 7.89736L1.12085 7.89705C1.1075 7.4589 1.3147 7.11892 1.59905 6.88971C1.55815 6.81379 1.52749 6.73229 1.5071 6.65275C1.46099 6.47288 1.45232 6.24918 1.54046 6.06096L1.54093 6.05986L1.56257 6.01479L1.56288 6.01408L1.56319 6.01346C1.61707 5.90481 1.68216 5.80003 1.78858 5.72166C1.84606 5.67934 1.90846 5.65004 1.97421 5.62854C1.94448 5.56187 1.91778 5.49065 1.89694 5.41713C1.85465 5.26786 1.83061 5.09016 1.8703 4.91783L1.87061 4.9165L1.87093 4.91525L1.87827 4.88635L1.87874 4.88447C1.96523 4.56553 2.1216 4.33679 2.3564 4.19814C2.4836 4.12304 2.62316 4.08091 2.76718 4.059C2.73962 3.87788 2.78542 3.69058 2.86741 3.53502C2.96788 3.34445 3.13801 3.17044 3.36202 3.07932L3.36382 3.07854L3.3689 3.07627L3.37413 3.07455C3.53373 3.01681 3.69131 3.03402 3.82304 3.0701C3.84308 3.07559 3.86296 3.08172 3.88265 3.08822C3.94694 2.83345 4.08586 2.59081 4.24991 2.39689C4.45227 2.15771 4.7313 1.94819 5.02101 1.9065C5.28609 1.85523 5.52096 1.92899 5.73186 2.06486C5.75668 2.01332 5.7866 1.96158 5.82374 1.91252C5.94878 1.74733 6.13284 1.63667 6.3989 1.58549L6.45319 1.57604C6.62323 1.54128 6.78209 1.60468 6.90077 1.6783C6.95164 1.70985 7.001 1.74697 7.04851 1.7876C7.09951 1.73073 7.1591 1.67177 7.22835 1.61533C7.34254 1.50325 7.51336 1.42355 7.65101 1.37338C7.79538 1.32076 7.96134 1.27979 8.07601 1.27979H8.08038ZM8.07601 1.51979C8.00311 1.51979 7.86831 1.5496 7.73319 1.59885C7.60159 1.64681 7.46871 1.71358 7.39304 1.78979L7.38851 1.79447L7.38343 1.79854C7.28876 1.87513 7.21386 1.95912 7.15397 2.03541L7.0703 2.14197L6.97468 2.04611C6.9081 1.97942 6.84044 1.92324 6.77429 1.88221C6.67701 1.82186 6.58174 1.79324 6.49757 1.81182L6.4939 1.8126L6.49015 1.81322C6.24136 1.85204 6.10276 1.94152 6.01507 2.05736C5.964 2.12483 5.9287 2.20462 5.89897 2.29018L5.84366 2.44955L5.71124 2.34494C5.49773 2.17624 5.29033 2.09749 5.06288 2.14275L5.0596 2.14346L5.05632 2.14393C4.8492 2.17327 4.61798 2.33339 4.43311 2.55189C4.25883 2.75791 4.12504 3.01666 4.09218 3.26697L4.07155 3.42439L3.92577 3.36158C3.86931 3.33725 3.81371 3.3163 3.75968 3.3015C3.65393 3.27254 3.55089 3.26558 3.45491 3.30057L3.42421 3.31385C3.27274 3.38382 3.15295 3.50791 3.07968 3.64689C3.00155 3.79513 2.97634 3.96013 3.02163 4.09424L3.02171 4.09439L3.10241 4.27119L2.92913 4.28283C2.75583 4.29446 2.60473 4.33029 2.47843 4.40486C2.31016 4.50422 2.18478 4.67293 2.11038 4.94729L2.10413 4.97174L2.09952 4.99408C2.07879 5.10686 2.09387 5.23189 2.1278 5.35166C2.15812 5.45866 2.20395 5.56228 2.25335 5.65057L2.33538 5.79713L2.17015 5.82721C2.06198 5.84692 1.9883 5.87264 1.93085 5.91494C1.8704 5.95946 1.82616 6.02345 1.77827 6.12002L1.75772 6.1626L1.7578 6.16268C1.70155 6.2828 1.70146 6.44464 1.73952 6.59314C1.76334 6.68603 1.80343 6.77739 1.85601 6.849L1.92921 6.94869L1.82733 7.01885C1.53785 7.21815 1.33341 7.52683 1.36296 7.9358L1.36686 7.99057L1.36647 7.99088C1.39381 8.32324 1.51718 8.59471 1.77397 8.78822L1.88163 8.86932L1.78858 8.96689C1.73952 9.0183 1.69985 9.0804 1.66983 9.14603C1.6178 9.25985 1.59321 9.38707 1.59679 9.49674L1.59686 9.49682L1.60108 9.52486C1.64873 9.81306 1.82295 10.0409 2.10608 10.0731L2.27163 10.0918L2.20132 10.2429C2.12045 10.4167 2.08529 10.5837 2.10358 10.7461C2.12574 10.9428 2.22617 11.1324 2.41874 11.3171L2.45851 11.3539L2.45874 11.3542C2.58882 11.4715 2.78046 11.5162 3.06632 11.5266L3.21811 11.5321L3.17765 11.6785C3.1358 11.8298 3.13699 11.9678 3.1778 12.0926C3.23134 12.2562 3.35286 12.3954 3.53241 12.5087L3.5328 12.509L3.53351 12.5094C3.61176 12.5509 3.71794 12.57 3.83101 12.5647C3.89074 12.5619 3.95296 12.5521 4.01436 12.5353L4.16327 12.4943L4.16608 12.6488C4.16897 12.8073 4.19427 12.9628 4.24866 13.0982L4.26327 13.1325C4.33446 13.2905 4.44844 13.4181 4.61726 13.4858L4.65429 13.4994L4.65851 13.5008L4.66265 13.5025C4.99476 13.6417 5.28165 13.5608 5.60624 13.386L5.74936 13.3088L5.78085 13.4684C5.83723 13.7541 6.01011 13.9634 6.24655 13.9992L6.26968 14.0021L6.27194 14.0023L6.27311 14.0024L6.27468 14.0026L6.27632 14.0028C6.43757 14.0227 6.59518 13.9785 6.71788 13.9037C6.76094 13.8774 6.80121 13.8462 6.83608 13.8117L6.95538 13.6936L7.02851 13.8447C7.13937 14.0737 7.32272 14.2467 7.44593 14.3311L7.44671 14.3317L7.44772 14.3323C7.60249 14.4245 7.79511 14.4353 7.94296 14.4127L7.96601 14.4092L7.98866 14.4146C8.05346 14.4298 8.11012 14.4302 8.16405 14.4191L8.18624 14.4138C8.23757 14.4002 8.2868 14.3765 8.33858 14.3463L8.33937 14.3458L8.34022 14.3454C8.57197 14.2149 8.7731 14.0795 8.90858 13.9071L9.0021 13.7879L9.09671 13.9063C9.17894 14.0092 9.31016 14.0831 9.48655 14.1021C9.87318 14.1391 10.2135 13.8951 10.3065 13.5377L10.3416 13.4027L10.4698 13.4575C10.5934 13.5104 10.727 13.5492 10.8564 13.561C11.0367 13.5776 11.2099 13.5423 11.3369 13.4208L11.3396 13.4182L11.3424 13.4158C11.5248 13.2617 11.639 13.1228 11.7075 12.9778C11.7522 12.8833 11.7773 12.7863 11.7895 12.6813L11.8076 12.5256L11.9533 12.5838C12.0328 12.6156 12.1192 12.6358 12.2058 12.6409C12.3554 12.6496 12.5075 12.614 12.628 12.5148C12.7767 12.391 12.8563 12.2602 12.8809 12.1209C12.9027 11.9984 12.882 11.869 12.8284 11.7313L12.7694 11.5797L12.9318 11.5681C13.0347 11.5608 13.1342 11.541 13.2291 11.5011C13.3749 11.44 13.5105 11.3319 13.6305 11.151L13.6334 11.1467L13.6366 11.1425C13.7532 10.996 13.7792 10.8377 13.7564 10.6685C13.739 10.5391 13.6925 10.4017 13.6361 10.2576L13.5869 10.1322L13.7171 10.0978C13.8359 10.0663 13.9341 10.0187 14.0116 9.94736C14.1169 9.85055 14.1842 9.70975 14.2123 9.50611C14.217 9.29836 14.1266 9.12619 14.0279 9.00971L13.9375 8.90291L14.0567 8.82978C14.206 8.73827 14.3452 8.62954 14.4484 8.48986C14.583 8.30763 14.6574 8.07187 14.613 7.75213L14.6126 7.74947L14.6125 7.74924C14.5516 7.3584 14.31 7.13959 14.1218 7.03291L13.9762 6.95049L14.101 6.839C14.1487 6.79639 14.1894 6.74621 14.222 6.69314C14.2823 6.59502 14.317 6.48493 14.3207 6.38854L14.3186 6.36775C14.3058 6.26261 14.2613 6.14129 14.1916 6.03791C14.1178 5.92841 14.0156 5.83912 13.8931 5.81033L13.8905 5.80971C13.8601 5.80184 13.8307 5.79424 13.8034 5.78729L13.6587 5.75049L13.7258 5.61713C13.7662 5.53668 13.795 5.45464 13.8132 5.37979C13.8273 5.32151 13.8353 5.26725 13.8375 5.22096L13.8381 5.189C13.8377 5.1585 13.8345 5.1324 13.8284 5.11236L13.7884 4.98057C13.7304 4.80866 13.6539 4.6631 13.5259 4.54955C13.3879 4.42708 13.1903 4.34183 12.8916 4.30072L12.7566 4.28213L12.7921 4.15057C12.8306 4.0077 12.8485 3.86247 12.8227 3.73268L12.8153 3.70041C12.7958 3.62585 12.7606 3.55671 12.7048 3.49674C12.645 3.43258 12.5618 3.37884 12.4489 3.3401L12.4237 3.33189L12.4226 3.33158C12.3513 3.30752 12.2644 3.29926 12.1769 3.30104L12.1394 3.30236C12.094 3.30471 12.0486 3.30961 12.0053 3.31627L11.8731 3.33658L11.8672 3.20299C11.8489 2.79237 11.6263 2.31871 11.0739 2.21104L11.073 2.21088L11.0289 2.204C10.8265 2.17718 10.6368 2.21503 10.4859 2.27275C10.3965 2.30698 10.3177 2.34947 10.2577 2.39111L10.1175 2.48846L10.0733 2.32354C10.0545 2.25303 10.0276 2.18615 9.99444 2.12713C9.93603 2.02286 9.85785 1.94173 9.76874 1.90674L9.76851 1.90666L9.72796 1.89283C9.52985 1.82972 9.37827 1.84064 9.25882 1.89541C9.18431 1.92958 9.12251 1.98081 9.06937 2.04213L8.95827 2.17033L8.87437 2.02291C8.74103 1.78857 8.55868 1.62892 8.35788 1.58502L8.34772 1.58275L8.33819 1.57885C8.28294 1.55632 8.24478 1.54174 8.20851 1.53275C8.16996 1.5232 8.13315 1.51979 8.08038 1.51979H8.07601Z" fill="white"/>
<path d="M11.1915 2.54297C11.5518 2.63392 11.6788 2.9999 11.6997 3.2547C11.6997 2.9999 11.543 2.5639 11.1915 2.54297Z" fill="white"/>
<path d="M4.85962 2.35171C5.12887 2.22539 5.38368 2.26725 5.51793 2.4008C5.33315 2.24488 5.07834 2.22467 4.85962 2.35171Z" fill="white"/>
<path d="M3.4823 3.35725C3.61656 3.30817 3.80857 3.35003 3.91396 3.42005C3.80136 3.37097 3.62306 3.32188 3.4823 3.35725Z" fill="white"/>
<path d="M3.09619 3.74902L3.20879 4.16408C3.14527 4.05219 3.10341 3.89628 3.09619 3.74902Z" fill="white"/>
<path d="M13.4869 4.62402C13.6861 4.78788 13.7699 5.02104 13.7353 5.22676C13.6861 4.93802 13.6299 4.77417 13.4869 4.62402Z" fill="white"/>
<path d="M13.884 7.00293C14.1179 7.08666 14.3583 7.32775 14.4283 7.61649C14.302 7.2996 14.1028 7.12131 13.884 7.00293Z" fill="white"/>
<path d="M14.1727 6.16309C14.2565 6.31179 14.2355 6.53195 14.1445 6.65827C14.2081 6.46626 14.2145 6.31829 14.1727 6.16309Z" fill="white"/>
<path d="M9.755 2.05615C9.89652 2.07709 10.038 2.26187 10.0589 2.4113C9.99612 2.24094 9.91892 2.12834 9.755 2.05615Z" fill="white"/>
<path d="M7.91583 1.83706L7.80322 1.97782L7.93749 2.01319L8.06383 1.90058L8.01471 1.83057L7.91583 1.83706Z" fill="white"/>
<path d="M6.37183 1.93489L6.662 1.96304L6.51331 1.90674L6.37183 1.93489Z" fill="white"/>
<path d="M8.40527 2.11914L8.56191 2.33136L8.51279 2.31042L8.40527 2.11914Z" fill="white"/>
<path d="M7.35286 2.63379L7.32471 3.05606L7.46547 2.83662L7.35286 2.63379Z" fill="white"/>
<path d="M6.54801 3.24805L6.5343 3.46821L6.60432 3.39169L6.54801 3.24805Z" fill="white"/>
<path d="M10.975 3.24104L10.9115 3.46842L11.0241 3.49585L11.0378 3.21289L10.975 3.24104Z" fill="#9B9B9B"/>
<path d="M8.61451 2.67578L8.59363 2.79489L8.66363 2.7458L8.61451 2.67578Z" fill="white"/>
<path d="M8.71559 4.07371L8.60303 4.34873L8.68751 4.32779L8.83615 4.06649L8.82247 3.98926L8.71559 4.07371Z" fill="#9B9B9B"/>
<path d="M10.0366 3.91846L9.32349 4.6273L9.38701 4.64102L10.0366 3.91846Z" fill="#9B9B9B"/>
<path d="M10.1376 4.49748L9.93835 4.81509L10.0149 4.77972L10.2004 4.44189L10.1376 4.49748Z" fill="#656565"/>
<path d="M11.4658 4.42773L11.4304 4.55405L11.4939 4.48404L11.4658 4.42773Z" fill="white"/>
<path d="M11.6752 5.08166C11.9301 4.86944 12.2411 4.75684 12.566 4.75684C12.2549 4.7922 11.9437 4.91131 11.6752 5.08166Z" fill="#9B9B9B"/>
<path d="M12.8518 4.92578L12.9008 5.09613L13.0568 4.94022L12.8518 4.92578Z" fill="#9B9B9B"/>
<path d="M13.3788 5.08154L13.2661 5.53991L13.4228 5.20859L13.3788 5.08154Z" fill="white"/>
<path d="M12.5486 5.15873L11.5431 5.89645L12.5761 5.14502L12.5486 5.15873Z" fill="white"/>
<path d="M12.5053 6.03027L11.9408 6.5103L12.0108 6.49658L12.5053 6.03027Z" fill="#9B9B9B"/>
<path d="M12.7868 6.59521L12.7587 6.66524L12.8568 6.62337L12.7868 6.59521Z" fill="#9B9B9B"/>
<path d="M13.4437 6.82172L13.6913 6.80078L13.6494 6.84987L13.4437 6.82172Z" fill="white"/>
<path d="M13.7179 7.84424L13.9446 7.90704L13.8103 8.07085L13.7179 7.84424Z" fill="white"/>
<path d="M12.1155 7.80127L12.3284 7.84385L12.2584 7.90665L12.1155 7.86479V7.80127Z" fill="#9B9B9B"/>
<path d="M12.0721 8.73242L12.1213 8.7533L12.0721 8.80242V8.73242Z" fill="white"/>
<path d="M11.7113 9.33168L11.8023 9.458L11.8441 9.2876L11.7113 9.33168Z" fill="#9B9B9B"/>
<path d="M12.0721 9.28857L12.2288 9.42281L12.729 9.53545L12.0721 9.28857Z" fill="white"/>
<path d="M12.4403 9.77197L13.0048 10.1452L13.0748 10.3227L13.1383 10.2173L12.9391 10.0116L12.4403 9.77197Z" fill="white"/>
<path d="M13.1549 10.6309L13.2039 10.8438L13.2531 10.7319L13.1549 10.6309Z" fill="white"/>
<path d="M12.1804 10.9341L12.638 11.0604L12.5045 11.0395L12.1804 10.9341Z" fill="white"/>
<path d="M11.5452 11.0352L11.6578 11.1622V11.0633L11.5452 11.0352Z" fill="white"/>
<path d="M11.7113 11.5405L11.7539 11.674L11.7885 11.5614L11.7113 11.5405Z" fill="#9B9B9B"/>
<path d="M12.527 11.7715L12.6042 11.9844L12.5832 11.8061L12.527 11.7715Z" fill="white"/>
<path d="M10.9894 12.9339L11.1669 12.8003L11.1395 12.9924L10.9894 12.9339Z" fill="white"/>
<path d="M9.69012 13.7782L9.62012 13.8272L9.81212 13.75L9.69012 13.7782Z" fill="white"/>
<path d="M7.73175 13.4751L7.7599 13.6599L7.66895 13.5264L7.73175 13.4751Z" fill="white"/>
<path d="M7.30945 12.6739L7.42206 13.0961L7.35203 12.5244L7.30945 12.6739Z" fill="white"/>
<path d="M9.17755 11.6562L8.83899 12.1146L9.10755 11.6988L9.17755 11.6562Z" fill="#9B9B9B"/>
<path d="M10.9172 10.0537L10.4733 10.4385L10.9598 10.1425L10.9172 10.0537Z" fill="#9B9B9B"/>
<path d="M10.9388 10.6962L11.1936 10.7943L11.1236 10.624L10.9388 10.6962Z" fill="#9B9B9B"/>
<path d="M10.5274 12.3203L10.5693 12.7L10.4856 12.4878L10.5274 12.3203Z" fill="white"/>
<path d="M9.68286 9.92371L9.89582 9.90283L9.95934 10.0147L9.68286 9.92371Z" fill="#9B9B9B"/>
<path d="M8.69397 9.74316L8.92781 9.88388L8.85781 9.7994L8.69397 9.74316Z" fill="#9B9B9B"/>
<path d="M7.6062 8.95649L7.71159 8.48441L7.6062 8.32129V8.95649Z" fill="white"/>
<path d="M8.36771 3.35693L7.88123 4.18488L7.95846 4.19209L8.50275 3.39158L8.36771 3.35693Z" fill="#656565"/>
<path d="M5.83628 3.24463L5.8009 3.35723L5.87093 3.32186L5.83628 3.24463Z" fill="#9B9B9B"/>
<path d="M5.10789 2.63379L5.02344 2.72474L5.18729 2.74567L5.20101 2.66844L5.10789 2.63379Z" fill="#656565"/>
<path d="M4.54348 2.80478L4.39404 3.10073L4.58605 2.84664L4.70587 2.72754L4.54348 2.80478Z" fill="#656565"/>
<path d="M4.15796 4.28613L4.2352 4.50556L4.2915 4.44204L4.15796 4.28613Z" fill="#9B9B9B"/>
<path d="M3.45414 4.7876L2.97412 5.44591L3.51767 4.85978L3.45414 4.7876Z" fill="#656565"/>
<path d="M3.85478 4.86523L3.0752 5.77475L3.27442 5.71195L3.95223 4.86523H3.85478Z" fill="#656565"/>
<path d="M4.33336 4.94238L3.43323 6.07711L3.53861 6.05618L4.36151 5.01241L4.33336 4.94238Z" fill="#656565"/>
<path d="M4.83362 5.34125L4.92457 5.1709L4.94551 5.24741L4.83362 5.34125Z" fill="#9B9B9B"/>
<path d="M6.00656 3.90479L5.26306 4.79409L5.31215 4.82224L6.08452 3.92572L6.00656 3.90479Z" fill="#656565"/>
<path d="M6.8526 4.25775L6.83167 4.39129L6.92983 4.36314L6.91612 4.23682L6.8526 4.25775Z" fill="#9B9B9B"/>
<path d="M6.78254 4.78756L6.47144 5.05608L6.85906 4.71826L6.78254 4.78756Z" fill="#656565"/>
<path d="M7.30374 5.89657L7.29724 6.00196L7.40985 5.99546L7.3817 5.86914L7.30374 5.89657Z" fill="#9B9B9B"/>
<path d="M7.67618 6.33984L7.61987 6.48926L7.71805 6.38388L7.67618 6.33984Z" fill="#656565"/>
<path d="M9.69005 5.68737L9.27429 5.99704L9.66773 5.64551L9.69005 5.68737Z" fill="#9B9B9B"/>
<path d="M10.1016 5.57452L10.3145 5.51172L10.2228 5.60267L10.1016 5.57452Z" fill="#656565"/>
<path d="M10.7656 6.05078L10.8638 6.07172L10.8147 6.09987L10.7656 6.05078Z" fill="#9B9B9B"/>
<path d="M11.2275 6.23584L11.4968 6.49642L11.4477 6.5455L11.2275 6.23584Z" fill="#656565"/>
<path d="M4.63648 13.2367C4.45169 13.1031 4.39539 12.7999 4.39539 12.709C4.43726 12.9566 4.52821 13.1175 4.63648 13.2367Z" fill="white"/>
<path d="M3.51049 12.2695L3.68805 12.3887L3.47583 12.3114L3.51049 12.2695Z" fill="white"/>
<path d="M2.4855 11.0495C2.3729 10.9015 2.32381 10.7023 2.38012 10.5464C2.3729 10.724 2.42198 10.9015 2.4855 11.0495Z" fill="white"/>
<path d="M2.76846 10.3638L2.71216 10.4692L2.85292 10.3991L2.76846 10.3638Z" fill="white"/>
<path d="M2.86658 10.8548L2.9301 10.8967L2.90916 10.8267L2.86658 10.8548Z" fill="white"/>
<path d="M3.68152 10.826L3.99262 10.7842L3.81505 10.8751L3.68152 10.826Z" fill="white"/>
<path d="M4.3031 11.4323L4.4814 11.2988L4.36879 11.4908L4.3031 11.4323Z" fill="#9B9B9B"/>
<path d="M4.93323 12.8976L5.04583 12.8066L5.10863 12.9048L4.93323 12.8976Z" fill="#9B9B9B"/>
<path d="M5.3988 12.9408L6.11847 12.3193L6.00659 12.4969L5.3988 12.9408Z" fill="white"/>
<path d="M5.63919 10.9341L5.21619 11.5274L5.36489 11.077L5.50637 10.9789L5.63919 10.9341Z" fill="white"/>
<path d="M6.15378 11.8364L5.76038 12.2362L6.49954 11.4668L6.56234 11.4458L6.15378 11.8364Z" fill="white"/>
<path d="M6.59778 12.6016L6.69595 12.4746V12.6594L6.59778 12.6016Z" fill="#9B9B9B"/>
<path d="M7.33186 11.6202L7.42281 11.5566V12.0143L7.33186 11.8014L7.26184 11.8778L7.33186 11.6202Z" fill="#9B9B9B"/>
<path d="M3.82947 8.64598L3.7876 8.35006L3.85762 8.3291L3.8439 8.63878L3.82947 8.64598Z" fill="#9B9B9B"/>
<path d="M3.58117 8.44385L3.65119 8.51393L3.4895 8.48577L3.58117 8.44385Z" fill="#9B9B9B"/>
<path d="M2.37292 8.28024L2.7259 8.25928L2.41479 8.35024L2.37292 8.28024Z" fill="white"/>
<path d="M1.9939 7.96045L2.113 8.0095L1.9939 8.04422V7.96045Z" fill="white"/>
<path d="M3.59497 7.43628L3.857 7.2876V7.3576L3.59497 7.43628Z" fill="white"/>
<path d="M3.85693 6.60252L3.9912 6.57437L4.03306 6.41846L3.85693 6.47476V6.60252Z" fill="#9B9B9B"/>
<path d="M2.6977 9.04298L2.35266 9.0921L2.47249 9.0293L2.6977 9.04298Z" fill="#9B9B9B"/>
<path d="M3.1488 9.19447L3.29028 9.11719V9.22983L3.1488 9.19447Z" fill="#9B9B9B"/>
<path d="M4.05694 9.32471L3.94434 9.53047L4.10026 9.39687L4.05694 9.32471Z" fill="white"/>
<path d="M4.84729 9.49756L4.94546 9.60292L4.95918 9.50476L4.84729 9.49756Z" fill="white"/>
<path d="M5.6521 9.92355L5.97692 9.97267L5.83617 9.87451L5.6521 9.92355Z" fill="white"/>
<path d="M6.25989 9.81547L6.43025 9.75195L6.37394 9.85019L6.25989 9.81547Z" fill="#9B9B9B"/>
<path d="M9.29314 11.786L9.24402 11.4966L9.29314 11.5875V11.786Z" fill="white"/>
<path d="M3.40503 10.0461L3.79843 9.84766L3.51547 10.0953L3.40503 10.0461Z" fill="white"/>
<path d="M11.8978 6.14528C12.1562 6.68448 12.1178 7.40048 11.913 7.97888C11.7082 8.41328 11.1298 8.89728 10.5754 8.95888C9.84024 9.15648 9.03224 8.95888 8.56424 8.09648C8.26584 7.18768 8.56424 6.15328 9.29944 5.56768C9.65144 5.30848 10.3874 5.25408 10.9186 5.41088C11.3466 5.52848 11.6914 5.80368 11.8978 6.14528Z" fill="white"/>
<path d="M8.88308 6.12327C8.52044 6.64531 8.66468 7.57508 8.93172 8.10525C9.21444 8.60373 9.69668 8.92797 10.3173 8.91261C10.8968 8.97501 11.4763 8.57213 11.7598 8.11493C12.139 7.48024 11.895 6.52858 11.421 5.87036C11.0097 5.48289 10.6784 5.43587 10.2292 5.5064C9.63324 5.57692 9.1502 5.80794 8.88308 6.12327Z" fill="white"/>
<path d="M10.2268 5.48651C10.4524 5.45114 10.6505 5.44495 10.8445 5.49728C11.0268 5.54646 11.2038 5.64687 11.396 5.82018L11.4348 5.8558L11.4361 5.85713L11.4372 5.85869C11.6758 6.19001 11.8566 6.59523 11.93 6.99791C12.0034 7.40045 11.9698 7.80238 11.777 8.12516L11.7768 8.12548C11.4908 8.58668 10.9054 8.99556 10.3161 8.9326C9.68803 8.94756 9.19995 8.61876 8.91435 8.11508L8.91387 8.11428C8.77907 7.84664 8.67555 7.47901 8.65131 7.11252C8.62699 6.7464 8.68171 6.3782 8.86667 6.11189L8.86723 6.11104L8.86787 6.11033C9.13075 5.79997 9.59739 5.57209 10.171 5.49369L10.2268 5.48651ZM10.8341 5.53596C10.6476 5.48563 10.4556 5.49114 10.2323 5.5262L10.2315 5.52627C9.63939 5.59635 9.16203 5.82548 8.89899 6.13533C8.72171 6.39101 8.66723 6.74837 8.69123 7.10987C8.71515 7.47112 8.81715 7.83334 8.94931 8.09588C9.22891 8.58852 9.70467 8.90772 10.3168 8.8926H10.3182L10.3195 8.89276C10.889 8.95404 11.4619 8.5574 11.7428 8.10436C11.929 7.79255 11.9629 7.4014 11.8907 7.00502C11.8185 6.60932 11.6408 6.21029 11.4059 5.88369C11.2025 5.69236 11.0201 5.58614 10.8341 5.53596Z" fill="#111111"/>
<path d="M11.6339 6.12216C11.9859 6.63736 11.8459 7.55496 11.5867 8.07815C11.3123 8.57015 10.8443 8.89015 10.2419 8.87495C9.67947 8.93655 9.11707 8.53895 8.84187 8.08775C8.47387 7.46136 8.71067 6.52216 9.17067 5.87256C9.56987 5.49016 9.89147 5.44376 10.3275 5.51336C10.9059 5.58296 11.3747 5.81096 11.6339 6.12216Z" fill="white"/>
<path d="M9.73 5.50414C9.91864 5.45238 10.1113 5.45858 10.3306 5.49359C10.8938 5.5615 11.3561 5.77902 11.6239 6.08L11.6492 6.10938L11.6498 6.11008L11.6504 6.11086C11.8299 6.37371 11.883 6.73714 11.8594 7.09844C11.8358 7.46012 11.7354 7.82294 11.6046 8.08702L11.6041 8.0879C11.3269 8.58502 10.853 8.90965 10.243 8.89493C9.67072 8.95709 9.10232 8.55325 8.82472 8.09821L8.82456 8.0979C8.63744 7.77928 8.6048 7.38258 8.67608 6.98531C8.74736 6.58791 8.9228 6.18802 9.15432 5.86102L9.15544 5.85946L9.1568 5.85813C9.35808 5.66531 9.54112 5.55595 9.73 5.50414ZM10.3242 5.53313C10.1076 5.49854 9.92144 5.4931 9.74056 5.54274C9.56016 5.59222 9.38312 5.697 9.18568 5.88586C8.95784 6.20813 8.78544 6.60194 8.71544 6.99242C8.64528 7.38374 8.67832 7.76988 8.85912 8.07766C9.13184 8.52462 9.6876 8.91557 10.2397 8.85509L10.241 8.85493H10.2423C10.836 8.86989 11.2974 8.5551 11.5688 8.06902C11.6971 7.8099 11.7962 7.45245 11.8195 7.09586C11.8427 6.73898 11.7898 6.38621 11.6176 6.1339C11.3625 5.82833 10.8995 5.60233 10.325 5.5332L10.3242 5.53313Z" fill="#111111"/>
<path d="M10.3458 6.92381C10.4626 7.15181 10.4858 7.32461 10.3378 7.47261C10.1018 7.62061 9.77221 7.81821 9.52101 7.72461C9.27701 7.63181 9.04901 7.23341 9.09541 7.05181C9.14181 6.88781 9.50181 6.55981 9.61141 6.51261C9.74341 6.46621 9.91701 6.52061 9.97141 6.63741C10.1194 6.73821 10.2522 6.80781 10.3458 6.92381Z" fill="#111111"/>
<path d="M4.11518 6.4033C4.52555 5.67748 5.12962 5.19253 5.97314 5.23556C6.6974 5.35116 7.20717 5.95198 7.28401 6.73752L7.28416 6.73846C7.32231 7.00314 7.32195 7.37358 7.25385 7.59767C7.16377 7.80605 7.01654 8.05126 6.84807 8.26686C6.67898 8.48334 6.49018 8.66774 6.31807 8.75622C5.7079 9.03478 4.94229 8.9199 4.4487 8.41046L4.44846 8.41022C3.93792 7.90048 3.75186 7.09147 4.11526 6.40338L4.11518 6.4033Z" fill="white"/>
<path d="M5.82721 5.44775C6.07817 5.44775 6.32362 5.57715 6.53806 5.74588C6.75213 5.91431 6.93281 6.11998 7.05408 6.26838C7.1796 6.43542 7.22853 6.69017 7.24236 6.92901C7.2561 7.1661 7.23508 7.38343 7.22353 7.47432C7.18908 7.63019 7.05265 7.88158 6.88385 8.12002C6.71562 8.35762 6.51857 8.57754 6.36478 8.67434C5.99071 8.79258 5.38379 8.76722 4.88229 8.52602L4.83401 8.50194L4.83314 8.50162L4.80494 8.48818C4.51633 8.34538 4.30065 8.06954 4.18252 7.73736C4.06441 7.40527 4.04437 7.01831 4.14572 6.65572L4.15596 6.62072L4.15619 6.61979C4.31063 6.00367 4.93579 5.44775 5.82721 5.44775Z" fill="white"/>
<path d="M5.82723 5.42773C6.08482 5.42775 6.33466 5.56037 6.55044 5.73016C6.73924 5.87872 6.90202 6.05573 7.02121 6.19734L7.06957 6.2557L7.07004 6.25633C7.19929 6.42833 7.24843 6.6882 7.26231 6.92781C7.27615 7.16653 7.25503 7.3852 7.2434 7.4768L7.24324 7.47773L7.24309 7.4786C7.20771 7.63861 7.06915 7.89281 6.90012 8.1316C6.73159 8.3696 6.5327 8.59224 6.37544 8.69128L6.37324 8.69256L6.37082 8.69336C5.99158 8.8132 5.37941 8.7872 4.87363 8.544L4.87333 8.54392L4.82535 8.52L4.8245 8.51968L4.79629 8.50624L4.79606 8.50608C4.50178 8.36048 4.2831 8.07992 4.16364 7.74406C4.04418 7.40819 4.02395 7.01699 4.12645 6.65032L4.12652 6.65008L4.13652 6.61586L4.13677 6.61493L4.1445 6.58563C4.31348 5.97191 4.94131 5.42773 5.82723 5.42773ZM5.82723 5.46773C4.95818 5.46773 4.34694 6.00092 4.18301 6.59625L4.17558 6.62461L4.17535 6.62555L4.17513 6.62633L4.16488 6.66101L4.16496 6.66109C4.06475 7.0196 4.0846 7.40232 4.20137 7.73063C4.31814 8.05896 4.53071 8.33008 4.81349 8.47008L4.84129 8.48328L4.84199 8.48352L4.8909 8.508C5.38705 8.74656 5.98718 8.77168 6.35629 8.65592C6.50628 8.56064 6.70046 8.34448 6.86754 8.10848C7.03586 7.8707 7.16999 7.62247 7.2038 7.4707C7.21528 7.37988 7.23598 7.16465 7.22239 6.93016C7.20862 6.69241 7.15999 6.44311 7.03855 6.28101L6.99051 6.22305C6.87221 6.08249 6.71147 5.90776 6.52567 5.76157C6.3126 5.59391 6.07155 5.46775 5.82723 5.46773Z" fill="#111111"/>
<path d="M5.53674 5.49902C5.28604 5.49902 5.04102 5.62327 4.82706 5.78511C4.61373 5.94649 4.43362 6.1435 4.31261 6.28582H4.31253C4.18713 6.44582 4.1383 6.6902 4.12448 6.91949C4.11077 7.14691 4.13179 7.35536 4.14331 7.44246C4.16035 7.51642 4.20248 7.61364 4.26205 7.7216C4.32165 7.82959 4.39797 7.94722 4.48198 8.06127C4.64981 8.28919 4.84641 8.50015 4.99987 8.59303C5.38544 8.71023 6.01877 8.68055 6.52823 8.42767L6.52909 8.42727L6.55721 8.41447C7.14301 8.13583 7.42647 7.32876 7.20471 6.6241L7.2044 6.62308C7.05046 6.03269 6.42692 5.49902 5.53674 5.49902Z" fill="white"/>
<path d="M5.5368 5.479C6.43459 5.479 7.06674 6.01732 7.2236 6.6172L7.22383 6.61806C7.44785 7.32991 7.16271 8.14861 6.56586 8.43253L6.56555 8.43269L6.53742 8.44549L6.53734 8.44541L6.5368 8.44581L6.53672 8.44573C6.02295 8.70053 5.38467 8.73085 4.99414 8.61213L4.99172 8.61141L4.98962 8.61013C4.83266 8.51509 4.63411 8.30149 4.46594 8.07317C4.38151 7.95851 4.30469 7.84014 4.24462 7.73127C4.18471 7.62272 4.14157 7.52353 4.12391 7.44689L4.12367 7.44604L4.1236 7.44502C4.11198 7.35718 4.09081 7.1474 4.10462 6.9183C4.11849 6.68815 4.16755 6.43848 4.29688 6.27345L4.3029 6.2658H4.30352C4.4248 6.12366 4.60356 5.92917 4.81508 5.76916C5.03044 5.60626 5.27973 5.47901 5.5368 5.479ZM5.5368 5.519C5.2925 5.51901 5.05176 5.64027 4.83922 5.80104C4.62762 5.9611 4.44858 6.15684 4.3279 6.29876C4.2068 6.45376 4.15829 6.69252 4.14454 6.92064C4.13101 7.14516 4.15159 7.35128 4.16305 7.43845C4.17955 7.50968 4.22058 7.60478 4.27969 7.71189C4.3388 7.819 4.41462 7.93592 4.49821 8.04941C4.6649 8.27573 4.85854 8.48309 5.00821 8.57453C5.38894 8.68933 6.01544 8.65989 6.51946 8.40973L6.51985 8.40957L6.5207 8.40917L6.52086 8.40909L6.54899 8.39629C7.12354 8.12277 7.40517 7.32747 7.1857 6.63009V6.62994L7.18539 6.62892L7.18508 6.62814C7.03367 6.04759 6.41894 5.519 5.5368 5.519Z" fill="#111111"/>
<path d="M6.53833 6.73776C6.66313 6.96576 6.67833 7.45696 6.50473 7.62016C6.36473 7.69776 6.14393 7.85376 5.93113 7.78416C5.64873 7.67536 5.43593 7.56576 5.38953 7.23776C5.38953 6.97056 5.53753 6.72736 5.71913 6.62576C5.85913 6.61056 5.93753 6.60336 6.05433 6.53376C6.25913 6.49536 6.42953 6.53376 6.53833 6.73776Z" fill="#111111"/>
</svg>
