<svg width="32" height="32" viewBox="0 0 32 32" fill="none" xmlns="http://www.w3.org/2000/svg">
<path d="M16.1608 2.7998C16.2779 2.7998 16.3725 2.8074 16.4749 2.83278C16.5664 2.85545 16.6574 2.89105 16.767 2.93574C17.2582 3.0431 17.6709 3.42368 17.9574 3.92731C18.0808 3.78497 18.2309 3.65862 18.4178 3.57292C18.7229 3.43302 19.0898 3.41726 19.5298 3.55761L19.6186 3.58777L19.6221 3.58886L19.6253 3.59027C19.8738 3.68784 20.0661 3.90126 20.1982 4.13715C20.2749 4.27377 20.336 4.42624 20.3786 4.58528C20.5154 4.49025 20.6904 4.39644 20.8862 4.32152C21.2174 4.19483 21.639 4.10974 22.0938 4.17089L22.1851 4.18512L22.187 4.18544L22.1888 4.18574C23.4459 4.42812 23.9349 5.50899 23.9742 6.39558C24.068 6.38116 24.1669 6.37043 24.2664 6.36528C24.4806 6.35417 24.7184 6.36726 24.9221 6.4359L24.9741 6.45292C25.231 6.54088 25.4341 6.66766 25.5853 6.83012C25.7472 7.00408 25.8389 7.20734 25.881 7.41872C25.9427 7.7295 25.8978 8.06084 25.816 8.36387C26.4427 8.45011 26.8883 8.63324 27.2112 8.9198C27.5819 9.24881 27.7568 9.68489 27.8867 10.1553H27.8866C27.9141 10.2459 27.9197 10.3517 27.9149 10.4534C27.9096 10.5635 27.891 10.6874 27.8597 10.8165C27.8192 10.9828 27.7557 11.1641 27.6661 11.3423C27.721 11.3563 27.7802 11.3715 27.8413 11.3873C28.1653 11.4634 28.4146 11.6931 28.5824 11.942C28.752 12.1936 28.8589 12.4939 28.8806 12.7576L28.8819 12.772L28.8813 12.7864C28.8722 13.0257 28.788 13.2856 28.6486 13.5123C28.5723 13.6364 28.4763 13.7552 28.3619 13.8573C28.7835 14.0962 29.3288 14.5903 29.4634 15.4681L29.4635 15.4698L29.4637 15.4715C29.5608 16.1702 29.3982 16.7052 29.0899 17.1225C28.8582 17.4363 28.5514 17.6729 28.239 17.8644C28.4626 18.1283 28.6757 18.5276 28.6646 19.0179L28.6643 19.0318L28.6626 19.0454C28.6011 19.4896 28.4491 19.8294 28.1858 20.0716C27.9942 20.248 27.7594 20.358 27.4957 20.4278C27.6099 20.7193 27.7118 21.0164 27.7507 21.3052C27.8029 21.6926 27.744 22.0795 27.461 22.4348C27.1978 22.8318 26.8914 23.0812 26.5514 23.2238C26.332 23.316 26.1061 23.36 25.8806 23.376C25.9982 23.6782 26.0517 23.9828 25.9982 24.284C25.9368 24.631 25.7397 24.9395 25.4096 25.2144L25.4086 25.2152C25.1106 25.4604 24.7422 25.5417 24.3974 25.5216C24.1971 25.5097 23.999 25.4633 23.8174 25.3907C23.7904 25.622 23.7344 25.842 23.632 26.0585C23.4755 26.3897 23.2206 26.6934 22.8398 27.0152C22.5182 27.323 22.0925 27.398 21.6909 27.3612C21.4014 27.3347 21.1096 27.2491 20.8453 27.136C20.6294 27.9657 19.84 28.5284 18.9502 28.4433L18.9475 28.4432C18.5398 28.3992 18.2155 28.2249 18.0059 27.9625C17.7042 28.3467 17.2666 28.6364 16.7982 28.9001C16.6696 28.9752 16.532 29.0414 16.3766 29.0734C16.2323 29.1032 16.0837 29.1009 15.9223 29.0628C15.5931 29.1132 15.1442 29.0934 14.77 28.8694L14.7637 28.8656L14.7578 28.8616C14.485 28.675 14.0853 28.2987 13.8411 27.7942C13.7575 27.8769 13.6621 27.9508 13.5608 28.0126C13.2759 28.1862 12.9069 28.2913 12.5233 28.244C12.5216 28.2438 12.5199 28.2436 12.5183 28.2435C12.5173 28.2435 12.5162 28.2433 12.5151 28.2432C11.8754 28.1782 11.4547 27.6337 11.3264 26.9835C10.652 27.3468 9.99571 27.5464 9.23265 27.2267C8.74789 27.0649 8.44374 26.707 8.27469 26.2862C8.15233 25.9816 8.09849 25.6403 8.09233 25.3022C7.95259 25.3406 7.81077 25.3628 7.6736 25.3694C7.41728 25.3814 7.15798 25.3396 6.95249 25.2299L6.94499 25.2257L6.93766 25.2212C6.5452 24.9737 6.25685 24.6548 6.12766 24.2601C6.02923 23.9593 6.02971 23.6345 6.12406 23.2932C5.54329 23.2721 5.08398 23.182 4.75672 22.8867C4.28893 22.4665 4.02433 22.0128 3.96875 21.5193C3.92603 21.1401 4.00989 20.7614 4.18515 20.3848C3.45309 20.3016 3.04625 19.694 2.95593 19.026L2.95437 19.014L2.9539 19.0019C2.94544 18.7443 3.00246 18.4529 3.12157 18.1924C3.19064 18.0414 3.28389 17.8937 3.4036 17.7683C2.79297 17.3081 2.52574 16.654 2.4864 15.8893L2.48656 15.8892C2.41998 14.968 2.88611 14.2757 3.51859 13.8403C3.39187 13.6676 3.30038 13.4555 3.24672 13.2462C3.16253 12.9178 3.15389 12.5322 3.29829 12.2239L3.34157 12.1337C3.44334 11.9285 3.55264 11.7597 3.71953 11.6368C3.87757 11.5205 4.06681 11.4606 4.29734 11.4186C4.19089 11.2283 4.09137 11.0038 4.02485 10.769C3.94635 10.492 3.90755 10.1806 3.97453 9.8898L3.98921 9.832C4.15011 9.2387 4.43177 8.84124 4.83485 8.60324C5.13097 8.4284 5.47395 8.35108 5.84233 8.32636L5.82515 8.28872L5.82016 8.27777L5.81625 8.26636C5.69837 7.91832 5.76984 7.51862 5.94718 7.18214C6.1263 6.84238 6.42865 6.53622 6.82032 6.37872L6.8239 6.37715L6.82766 6.3759C7.08374 6.28252 7.34493 6.30668 7.58281 6.37184C7.70526 6.40537 7.8275 6.45163 7.94656 6.50292C8.01979 5.94508 8.31336 5.38611 8.68312 4.94902C9.07072 4.49088 9.58165 4.12091 10.0791 4.05043C10.6286 3.94107 11.1138 4.14024 11.5714 4.50184C11.6343 4.32081 11.7147 4.13414 11.8389 3.97012C12.06 3.67808 12.3991 3.47441 12.9434 3.38948C13.2004 3.33275 13.4575 3.42571 13.6751 3.56075C13.8275 3.65521 13.9771 3.78056 14.1192 3.92292C14.246 3.7614 14.4082 3.57883 14.6159 3.41075C14.8058 3.21958 15.1127 3.0714 15.3842 2.97246C15.6638 2.87057 15.9646 2.7998 16.1522 2.7998H16.1608Z" fill="#111111"/>
<path d="M16.1609 2.56006C16.2895 2.56006 16.405 2.56843 16.5326 2.60006C16.6369 2.62591 16.7371 2.66504 16.8395 2.70662C17.315 2.81739 17.7084 3.13968 18.0017 3.55178C18.0949 3.47664 18.1996 3.40924 18.3178 3.35506L18.3881 3.32506C18.7193 3.19369 19.0956 3.18525 19.5128 3.30225L19.6028 3.32928L19.6048 3.3299L19.607 3.33068L19.6893 3.35865L19.6929 3.35975L19.7062 3.36381L19.7187 3.36943L19.722 3.37084C20.0361 3.49738 20.2615 3.75929 20.4076 4.02006L20.4393 4.07896C20.4644 4.12745 20.4875 4.17741 20.509 4.22834C20.6001 4.18113 20.698 4.13681 20.8006 4.09756C21.1377 3.9686 21.5653 3.87752 22.032 3.9224L22.1257 3.93334L22.1307 3.93396L22.2221 3.94818L22.2234 3.9485L22.2246 3.94865L22.2265 3.94896L22.2279 3.94912L22.2298 3.94943L22.232 3.9499L22.2343 3.95037C23.5172 4.19775 24.0717 5.22898 24.1912 6.1299C24.2121 6.12838 24.233 6.12693 24.254 6.12584C24.4821 6.11402 24.753 6.12638 24.9967 6.20803L25.0489 6.22506L25.0503 6.22553L25.0518 6.22615C25.3392 6.32453 25.5783 6.47062 25.761 6.66693C25.9572 6.87772 26.0668 7.12317 26.1164 7.37209C26.1697 7.64054 26.1536 7.91476 26.1065 8.16912C26.6368 8.2723 27.0509 8.45681 27.3706 8.74053C27.7944 9.11665 27.9846 9.60845 28.1181 10.0916L28.202 10.3955H28.1564C28.1563 10.4193 28.1557 10.4425 28.1546 10.4649V10.4652C28.1485 10.5927 28.1273 10.7318 28.0929 10.8733C28.0687 10.9727 28.0367 11.0769 27.9971 11.1826C28.3486 11.297 28.6095 11.5532 28.7814 11.808L28.7815 11.8082C28.9717 12.0905 29.0939 12.4289 29.1196 12.7366L29.121 12.751L29.1224 12.7669L29.121 12.7955L29.1212 12.7957C29.1103 13.0814 29.0111 13.381 28.8531 13.6382C28.8167 13.6974 28.776 13.7557 28.7315 13.8122C29.142 14.1155 29.5776 14.6296 29.7006 15.4319L29.7017 15.439L29.7023 15.4455C29.8056 16.2001 29.6292 16.7965 29.2829 17.2652C29.0832 17.5357 28.8362 17.7503 28.5831 17.9265C28.7669 18.2093 28.9146 18.5827 28.9046 19.0235L28.9043 19.0376L28.904 19.0502L28.9024 19.0629L28.9006 19.0765L28.9004 19.0785C28.8339 19.5595 28.6644 19.9575 28.3482 20.2483C28.1875 20.3963 28.0041 20.5021 27.8084 20.5785C27.8884 20.8038 27.9569 21.0388 27.9885 21.2735C28.0469 21.7071 27.9821 22.1607 27.6551 22.5762C27.3698 23.0033 27.03 23.2834 26.6442 23.4452L26.6443 23.4454C26.4959 23.5077 26.3459 23.5497 26.1971 23.5774C26.259 23.82 26.2799 24.0713 26.2346 24.3262C26.1611 24.7415 25.926 25.097 25.5632 25.3991L25.5612 25.4007C25.2061 25.6929 24.7738 25.7843 24.3835 25.7615C24.2559 25.7539 24.1294 25.7336 24.007 25.7032C23.9715 25.8575 23.9207 26.0099 23.849 26.1615C23.6737 26.5325 23.3935 26.8611 22.9992 27.1951C22.6353 27.5391 22.1716 27.6298 21.7526 27.6066L21.669 27.6005C21.4378 27.5793 21.2086 27.5241 20.9931 27.4499C20.6659 28.2501 19.846 28.7665 18.936 28.6832L18.9334 28.683L18.9276 28.6827L18.9218 28.6821C18.5663 28.6437 18.2561 28.516 18.0159 28.3143C17.704 28.6355 17.3118 28.8863 16.919 29.1076L16.9192 29.1077C16.7976 29.1786 16.6574 29.2491 16.4957 29.2921L16.4251 29.3087C16.259 29.3429 16.0902 29.3421 15.914 29.3065C15.5553 29.3537 15.0676 29.3274 14.6468 29.0755L14.6456 29.0749L14.6445 29.0741L14.6382 29.0704L14.6339 29.0677L14.6296 29.0649L14.6237 29.0608L14.6223 29.0599C14.3731 28.8895 14.0323 28.5789 13.7714 28.1621C13.7432 28.1815 13.7147 28.2002 13.6857 28.2179C13.363 28.4146 12.9427 28.5359 12.5004 28.483C12.4989 28.4829 12.4969 28.4827 12.4951 28.4826C12.4947 28.4825 12.4942 28.4825 12.4939 28.4824C12.4928 28.4823 12.4918 28.4822 12.4909 28.4821C11.8201 28.4139 11.3741 27.9182 11.172 27.3307C10.5535 27.6214 9.89739 27.7624 9.14823 27.4516C8.58761 27.2615 8.24027 26.8446 8.05198 26.376C7.95189 26.1268 7.89459 25.8594 7.8687 25.5924C7.80709 25.6007 7.74577 25.6065 7.6851 25.6094H7.68479C7.39915 25.6228 7.09372 25.5776 6.83948 25.4418L6.83776 25.441L6.8362 25.4401L6.8287 25.4358L6.82416 25.4333L6.81979 25.4307L6.81245 25.4263L6.80963 25.4244C6.38431 25.1562 6.05085 24.7971 5.89963 24.3351C5.81355 24.072 5.79365 23.7969 5.83291 23.5162C5.35581 23.475 4.92665 23.3634 4.59635 23.0655L4.50526 22.9808C4.06099 22.5545 3.79017 22.0783 3.73026 21.5465C3.69237 21.2102 3.74266 20.8801 3.8551 20.5596C3.17154 20.3448 2.80514 19.7024 2.71807 19.0585L2.71791 19.0574L2.71635 19.0454L2.71495 19.0344L2.71463 19.0235L2.71416 19.0113L2.71401 19.0101C2.70429 18.7143 2.76931 18.3861 2.90338 18.0929C2.94843 17.9944 3.00332 17.8959 3.0687 17.8016C2.52362 17.302 2.28469 16.6379 2.24682 15.9019L2.2412 15.7952L2.24182 15.7946C2.21513 14.9183 2.62952 14.2383 3.19823 13.7799C3.11642 13.6281 3.0551 13.4651 3.01432 13.306C2.9221 12.9462 2.90477 12.4988 3.08104 12.1224L3.08198 12.1202L3.12526 12.0301L3.12588 12.0287L3.12651 12.0274C3.23426 11.8101 3.36444 11.6005 3.57729 11.4438C3.69225 11.3592 3.81703 11.3006 3.94854 11.2576C3.88909 11.1242 3.83568 10.9818 3.79401 10.8347C3.70942 10.5362 3.66135 10.1808 3.74073 9.83615L3.74135 9.8335L3.74198 9.831L3.75666 9.77318L3.7576 9.76943C3.93059 9.13155 4.24332 8.67406 4.71291 8.39678C4.96732 8.24658 5.24645 8.16231 5.53448 8.1185C5.47935 7.75626 5.57097 7.38165 5.73495 7.07053C5.93588 6.68939 6.27614 6.34137 6.72416 6.15912L6.72776 6.15756L6.73791 6.15303L6.74838 6.14959C7.06758 6.0341 7.38274 6.06853 7.6462 6.14068C7.68628 6.15166 7.72605 6.16393 7.76541 6.17693C7.894 5.66739 8.17185 5.18212 8.49995 4.79428C8.90465 4.31591 9.46273 3.89687 10.0421 3.8135C10.5723 3.71095 11.0421 3.85847 11.4639 4.13021C11.5135 4.02713 11.5733 3.92365 11.6476 3.82553C11.8977 3.49515 12.2658 3.27382 12.7979 3.17146L12.9065 3.15256C13.2466 3.08304 13.5643 3.20984 13.8017 3.35709C13.9034 3.42019 14.0021 3.49443 14.0971 3.57568C14.1991 3.46196 14.3183 3.34404 14.4568 3.23115C14.6852 3.00699 15.0268 2.84758 15.3021 2.74725C15.5909 2.64201 15.9228 2.56007 16.1521 2.56006H16.1609ZM16.1521 3.04006C16.0063 3.04007 15.7367 3.09969 15.4665 3.19818C15.2033 3.29411 14.9375 3.42764 14.7862 3.58006L14.7771 3.58943L14.767 3.59756C14.5776 3.75074 14.4278 3.91874 14.3081 4.07131L14.1407 4.28443L13.9495 4.09271C13.8163 3.95933 13.681 3.84696 13.5487 3.7649C13.3541 3.64421 13.1636 3.58697 12.9953 3.62412L12.9879 3.62568L12.9804 3.62693C12.4828 3.70458 12.2056 3.88352 12.0303 4.11521C11.9281 4.25014 11.8575 4.40973 11.7981 4.58084L11.6874 4.89959L11.4226 4.69037C10.9956 4.35297 10.5808 4.19548 10.1259 4.286L10.1193 4.2874L10.1128 4.28834C9.69852 4.34704 9.23608 4.66726 8.86635 5.10428C8.51779 5.51631 8.2502 6.0338 8.18448 6.53443L8.14323 6.84928L7.85166 6.72365C7.73874 6.675 7.62755 6.6331 7.51948 6.6035C7.30797 6.54557 7.1019 6.53164 6.90995 6.60162L6.84854 6.62818C6.5456 6.76813 6.30602 7.01631 6.15948 7.29428C6.00322 7.59075 5.9528 7.92075 6.04338 8.18896L6.04354 8.18928L6.20495 8.54287L5.85838 8.56615C5.51178 8.58942 5.20958 8.66107 4.95698 8.81021C4.62043 9.00893 4.36969 9.34636 4.22088 9.89506L4.20838 9.94396L4.19916 9.98865C4.1577 10.2142 4.18786 10.4643 4.25573 10.7038C4.31636 10.9178 4.40801 11.1251 4.50682 11.3016L4.67088 11.5947L4.34041 11.6549C4.12407 11.6943 3.97673 11.7458 3.86182 11.8304C3.74092 11.9194 3.65244 12.0474 3.55666 12.2405L3.51557 12.3257L3.51573 12.3258C3.40322 12.5661 3.40304 12.8898 3.47916 13.1868C3.52679 13.3726 3.60699 13.5553 3.71213 13.6985L3.85854 13.8979L3.65479 14.0382C3.07582 14.4368 2.66694 15.0542 2.72604 15.8721L2.73385 15.9816L2.73307 15.9822C2.78774 16.647 3.03449 17.1899 3.54807 17.5769L3.76338 17.7391L3.57729 17.9343C3.47917 18.0371 3.39982 18.1613 3.33979 18.2926C3.23572 18.5202 3.18654 18.7746 3.1937 18.994L3.19385 18.9941L3.20229 19.0502C3.29759 19.6266 3.64602 20.0823 4.21229 20.1466L4.54338 20.1841L4.40276 20.4863C4.24102 20.8339 4.1707 21.1679 4.20729 21.4927C4.2516 21.8861 4.45246 22.2652 4.8376 22.6346L4.91713 22.7083L4.9176 22.7088C5.17775 22.9436 5.56104 23.0329 6.13276 23.0537L6.43635 23.0647L6.35541 23.3574C6.27173 23.6601 6.27409 23.9362 6.35573 24.1857C6.4628 24.5128 6.70584 24.7912 7.06495 25.0179L7.06573 25.0185L7.06713 25.0193C7.22364 25.1024 7.43599 25.1404 7.66213 25.1299C7.7816 25.1242 7.90605 25.1047 8.02885 25.071L8.32666 24.9891L8.33229 25.298C8.33807 25.6151 8.38867 25.9261 8.49745 26.1969L8.52666 26.2655C8.66904 26.5814 8.897 26.8367 9.23463 26.9721L9.3087 26.9993L9.31713 27.0021L9.32541 27.0055C9.98964 27.2838 10.5634 27.1222 11.2126 26.7724L11.4989 26.6182L11.5618 26.9372C11.6746 27.5088 12.0203 27.9273 12.4932 27.9988L12.5395 28.0046L12.544 28.0051L12.5464 28.0054L12.5495 28.0057L12.5528 28.006C12.8753 28.0458 13.1905 27.9574 13.4359 27.8079C13.522 27.7554 13.6025 27.6928 13.6723 27.6238L13.9109 27.3877L14.0571 27.6899C14.2789 28.1479 14.6456 28.4938 14.892 28.6627L14.8935 28.6638L14.8956 28.6651C15.2051 28.8494 15.5903 28.8711 15.886 28.8258L15.9321 28.8188L15.9774 28.8296C16.1071 28.8602 16.2204 28.8609 16.3282 28.8387L16.3726 28.8282C16.4753 28.8009 16.5737 28.7534 16.6773 28.693L16.6789 28.6921L16.6806 28.6913C17.1441 28.4303 17.5463 28.1596 17.8173 27.8146L18.0043 27.5763L18.1935 27.813C18.358 28.0189 18.6204 28.1667 18.9732 28.2047C19.7465 28.2787 20.4271 27.7907 20.6131 27.0758L20.6832 26.8058L20.9398 26.9155C21.187 27.0213 21.4542 27.0988 21.7129 27.1226C22.0736 27.1556 22.4199 27.0852 22.6739 26.8421L22.6793 26.8369L22.6849 26.8321C23.0498 26.5238 23.2781 26.246 23.4151 25.9562C23.5045 25.7671 23.5546 25.573 23.5792 25.363L23.6154 25.0516L23.9067 25.168C24.0656 25.2316 24.2384 25.272 24.4117 25.2822C24.7109 25.2997 25.0151 25.2284 25.2562 25.0301C25.5535 24.7824 25.7126 24.5209 25.762 24.2422C25.8054 23.9973 25.7641 23.7385 25.657 23.4632L25.539 23.1599L25.8637 23.1368C26.0695 23.1222 26.2685 23.0825 26.4584 23.0027C26.75 22.8805 27.0211 22.6643 27.261 22.3024L27.2668 22.2938L27.2732 22.2855C27.5066 21.9925 27.5585 21.6758 27.5129 21.3376C27.4781 21.0787 27.3852 20.8039 27.2723 20.5157L27.174 20.2649L27.4343 20.196C27.672 20.1331 27.8684 20.0379 28.0234 19.8952C28.2339 19.7016 28.3685 19.42 28.4248 19.0127C28.4341 18.5972 28.2533 18.2529 28.0559 18.0199L27.8751 17.8063L28.1135 17.6601C28.412 17.477 28.6905 17.2596 28.8968 16.9802C29.1661 16.6157 29.3149 16.1442 29.226 15.5047L29.2253 15.4994L29.2251 15.499C29.1032 14.7173 28.6202 14.2797 28.2437 14.0663L27.9524 13.9015L28.2021 13.6785C28.2976 13.5933 28.3789 13.4929 28.4442 13.3868C28.5648 13.1905 28.6341 12.9704 28.6415 12.7776L28.6373 12.736C28.6118 12.5257 28.5227 12.2831 28.3834 12.0763C28.2357 11.8573 28.0314 11.6787 27.7864 11.6212L27.781 11.6199C27.7203 11.6042 27.6614 11.589 27.6068 11.5751L27.3176 11.5015L27.4517 11.2347C27.5326 11.0738 27.5901 10.9098 27.6265 10.7601C27.6548 10.6435 27.6706 10.535 27.6751 10.4424L27.6764 10.3785C27.6756 10.3175 27.6691 10.2653 27.657 10.2252L27.5768 9.96162C27.4608 9.6178 27.3078 9.32669 27.052 9.09959C26.776 8.85464 26.3808 8.68415 25.7834 8.60193L25.5134 8.56475L25.5843 8.30162C25.6614 8.01588 25.6971 7.72543 25.6456 7.46584L25.6307 7.40131C25.5917 7.25219 25.5213 7.11392 25.4096 6.99396C25.2902 6.86565 25.1236 6.75816 24.8979 6.68068L24.8474 6.66428L24.8454 6.66365C24.7026 6.61554 24.5288 6.59901 24.3539 6.60256L24.2789 6.60521C24.1882 6.60991 24.0973 6.61972 24.0107 6.63303L23.7464 6.67365L23.7345 6.40646C23.698 5.58522 23.2527 4.63791 22.1479 4.42256L22.1462 4.42225L22.0579 4.4085C21.653 4.35485 21.2738 4.43055 20.972 4.546C20.7931 4.61444 20.6355 4.69944 20.5156 4.78271L20.2351 4.9774L20.1468 4.64756C20.1091 4.50654 20.0552 4.37278 19.989 4.25475C19.8722 4.04621 19.7158 3.88395 19.5376 3.81396L19.5371 3.81381L19.456 3.78615C19.0598 3.65993 18.7567 3.68176 18.5178 3.79131C18.3687 3.85965 18.2451 3.96211 18.1389 4.08475L17.9167 4.34115L17.7489 4.04631C17.4822 3.57762 17.1175 3.25833 16.7159 3.17053L16.6956 3.166L16.6765 3.15818C16.566 3.11313 16.4897 3.08397 16.4171 3.066C16.34 3.0469 16.2664 3.04006 16.1609 3.04006H16.1521Z" fill="white"/>
<path d="M22.3831 5.08594C23.1035 5.26784 23.3576 5.99979 23.3994 6.50941C23.3994 5.99979 23.0861 5.12781 22.3831 5.08594Z" fill="white"/>
<path d="M9.71912 4.70293C10.2576 4.45029 10.7672 4.53402 11.0357 4.80111C10.6662 4.48927 10.1566 4.44885 9.71912 4.70293Z" fill="white"/>
<path d="M6.9646 6.71401C7.23313 6.61585 7.61714 6.69958 7.82791 6.83961C7.60271 6.74145 7.24612 6.64328 6.9646 6.71401Z" fill="white"/>
<path d="M6.19226 7.49805L6.41746 8.32816C6.29042 8.10438 6.20669 7.79256 6.19226 7.49805Z" fill="white"/>
<path d="M26.9739 9.24805C27.3723 9.57576 27.5398 10.0421 27.4705 10.4535C27.3723 9.87605 27.2598 9.54833 26.9739 9.24805Z" fill="white"/>
<path d="M27.7679 14.0063C28.2356 14.1738 28.7164 14.656 28.8564 15.2335C28.6038 14.5997 28.2054 14.2431 27.7679 14.0063Z" fill="white"/>
<path d="M28.3454 12.3257C28.5129 12.6231 28.471 13.0634 28.2891 13.3161C28.4161 12.932 28.4291 12.6361 28.3454 12.3257Z" fill="white"/>
<path d="M19.5101 4.11279C19.7932 4.15466 20.0761 4.52423 20.118 4.82308C19.9924 4.48238 19.838 4.25716 19.5101 4.11279Z" fill="white"/>
<path d="M15.8317 3.67364L15.6064 3.95516L15.875 4.02589L16.1277 3.80068L16.0294 3.66064L15.8317 3.67364Z" fill="white"/>
<path d="M12.7437 3.87027L13.324 3.92657L13.0266 3.81396L12.7437 3.87027Z" fill="white"/>
<path d="M16.8105 4.23828L17.1238 4.66271L17.0256 4.62084L16.8105 4.23828Z" fill="white"/>
<path d="M14.7056 5.26758L14.6493 6.11212L14.9308 5.67324L14.7056 5.26758Z" fill="white"/>
<path d="M13.0959 6.49609L13.0685 6.93641L13.2085 6.78337L13.0959 6.49609Z" fill="white"/>
<path d="M21.9499 6.4816L21.8229 6.93635L22.0482 6.99121L22.0755 6.42529L21.9499 6.4816Z" fill="#9B9B9B"/>
<path d="M17.2291 5.35156L17.1874 5.58977L17.3274 5.49159L17.2291 5.35156Z" fill="white"/>
<path d="M17.4312 8.14792L17.2061 8.69795L17.375 8.65608L17.6723 8.13347L17.6449 7.979L17.4312 8.14792Z" fill="#9B9B9B"/>
<path d="M20.0731 7.8374L18.6469 9.25508L18.7739 9.28252L20.0731 7.8374Z" fill="#9B9B9B"/>
<path d="M20.2754 8.99496L19.8768 9.63017L20.0299 9.55944L20.401 8.88379L20.2754 8.99496Z" fill="#656565"/>
<path d="M22.9317 8.85498L22.861 9.10762L22.988 8.96759L22.9317 8.85498Z" fill="white"/>
<path d="M23.3502 10.1633C23.86 9.73889 24.4821 9.51367 25.1318 9.51367C24.5096 9.58441 23.8873 9.82262 23.3502 10.1633Z" fill="#9B9B9B"/>
<path d="M25.7035 9.85107L25.8016 10.1918L26.1134 9.87995L25.7035 9.85107Z" fill="#9B9B9B"/>
<path d="M26.7574 10.1631L26.5321 11.0798L26.8454 10.4172L26.7574 10.1631Z" fill="white"/>
<path d="M25.0971 10.3175L23.0861 11.7929L25.152 10.29L25.0971 10.3175Z" fill="white"/>
<path d="M25.0106 12.0601L23.8816 13.0201L24.0216 12.9927L25.0106 12.0601Z" fill="#9B9B9B"/>
<path d="M25.5737 13.1904L25.5173 13.3305L25.7137 13.2467L25.5737 13.1904Z" fill="#9B9B9B"/>
<path d="M26.8873 13.6439L27.3825 13.6021L27.2987 13.7002L26.8873 13.6439Z" fill="white"/>
<path d="M27.4358 15.688L27.8892 15.8136L27.6206 16.1412L27.4358 15.688Z" fill="white"/>
<path d="M24.2308 15.603L24.6568 15.6882L24.5168 15.8138L24.2308 15.7301V15.603Z" fill="#9B9B9B"/>
<path d="M24.1443 17.4653L24.2425 17.5071L24.1443 17.6053V17.4653Z" fill="white"/>
<path d="M23.4226 18.6634L23.6045 18.916L23.6882 18.5752L23.4226 18.6634Z" fill="#9B9B9B"/>
<path d="M24.1443 18.5767L24.4576 18.8451L25.458 19.0704L24.1443 18.5767Z" fill="white"/>
<path d="M24.8806 19.5439L26.0096 20.2903L26.1496 20.6454L26.2766 20.4347L25.8782 20.0231L24.8806 19.5439Z" fill="white"/>
<path d="M26.3099 21.2622L26.408 21.6881L26.5063 21.4643L26.3099 21.2622Z" fill="white"/>
<path d="M24.361 21.8682L25.2762 22.1208L25.0091 22.079L24.361 21.8682Z" fill="white"/>
<path d="M23.0905 22.0708L23.3157 22.3249V22.1271L23.0905 22.0708Z" fill="white"/>
<path d="M23.4226 23.0811L23.5077 23.3481L23.577 23.1228L23.4226 23.0811Z" fill="#9B9B9B"/>
<path d="M25.054 23.543L25.2084 23.9687L25.1664 23.6122L25.054 23.543Z" fill="white"/>
<path d="M21.9789 25.8673L22.3339 25.6001L22.279 25.9843L21.9789 25.8673Z" fill="white"/>
<path d="M19.3801 27.5563L19.2401 27.6544L19.6241 27.5L19.3801 27.5563Z" fill="white"/>
<path d="M15.4635 26.9502L15.5198 27.3198L15.3379 27.0528L15.4635 26.9502Z" fill="white"/>
<path d="M14.619 25.3477L14.8442 26.1922L14.7042 25.0488L14.619 25.3477Z" fill="white"/>
<path d="M18.3552 23.312L17.6781 24.2286L18.2152 23.3971L18.3552 23.312Z" fill="#9B9B9B"/>
<path d="M21.8344 20.1069L20.9465 20.8765L21.9197 20.2845L21.8344 20.1069Z" fill="#9B9B9B"/>
<path d="M21.8778 21.3919L22.3874 21.5882L22.2474 21.2476L21.8778 21.3919Z" fill="#9B9B9B"/>
<path d="M21.0549 24.6401L21.1385 25.3995L20.9712 24.975L21.0549 24.6401Z" fill="white"/>
<path d="M19.3657 19.8474L19.7916 19.8057L19.9187 20.0293L19.3657 19.8474Z" fill="#9B9B9B"/>
<path d="M17.3879 19.4863L17.8556 19.7678L17.7156 19.5988L17.3879 19.4863Z" fill="#9B9B9B"/>
<path d="M15.2123 17.9125L15.4231 16.9683L15.2123 16.6421V17.9125Z" fill="white"/>
<path d="M16.7353 6.71436L15.7623 8.37024L15.9168 8.38468L17.0054 6.78365L16.7353 6.71436Z" fill="#656565"/>
<path d="M11.6724 6.48877L11.6017 6.71397L11.7417 6.64323L11.6724 6.48877Z" fill="#9B9B9B"/>
<path d="M10.2158 5.26758L10.0469 5.44948L10.3746 5.49134L10.402 5.33687L10.2158 5.26758Z" fill="#656565"/>
<path d="M9.08683 5.60956L8.78796 6.20146L9.17198 5.69329L9.41163 5.45508L9.08683 5.60956Z" fill="#656565"/>
<path d="M8.31592 8.57227L8.4704 9.01113L8.58299 8.88409L8.31592 8.57227Z" fill="#9B9B9B"/>
<path d="M6.9084 9.57568L5.94836 10.8923L7.03545 9.72005L6.9084 9.57568Z" fill="#656565"/>
<path d="M7.70956 9.72998L6.15039 11.549L6.54884 11.4234L7.90445 9.72998H7.70956Z" fill="#656565"/>
<path d="M8.66671 9.88428L6.86646 12.1537L7.07722 12.1119L8.72302 10.0243L8.66671 9.88428Z" fill="#656565"/>
<path d="M9.66724 10.683L9.84914 10.3423L9.89101 10.4953L9.66724 10.683Z" fill="#9B9B9B"/>
<path d="M12.0131 7.81006L10.5261 9.58867L10.6243 9.64497L12.169 7.85193L12.0131 7.81006Z" fill="#656565"/>
<path d="M13.7052 8.51599L13.6633 8.78307L13.8597 8.72676L13.8322 8.47412L13.7052 8.51599Z" fill="#9B9B9B"/>
<path d="M13.5651 9.5756L12.9429 10.1126L13.7181 9.43701L13.5651 9.5756Z" fill="#656565"/>
<path d="M14.6075 11.7931L14.5945 12.0039L14.8197 11.9909L14.7634 11.7383L14.6075 11.7931Z" fill="#9B9B9B"/>
<path d="M15.3524 12.6797L15.2397 12.9785L15.4361 12.7678L15.3524 12.6797Z" fill="#656565"/>
<path d="M19.3801 11.3743L18.5486 11.9936L19.3355 11.2905L19.3801 11.3743Z" fill="#9B9B9B"/>
<path d="M20.203 11.149L20.6289 11.0234L20.4456 11.2053L20.203 11.149Z" fill="#656565"/>
<path d="M21.5314 12.1021L21.7277 12.1439L21.6295 12.2002L21.5314 12.1021Z" fill="#9B9B9B"/>
<path d="M22.4552 12.4717L22.9938 12.9928L22.8955 13.091L22.4552 12.4717Z" fill="#656565"/>
<path d="M9.27309 26.4738C8.9035 26.2066 8.79089 25.6004 8.79089 25.4185C8.87464 25.9137 9.05654 26.2356 9.27309 26.4738Z" fill="white"/>
<path d="M7.02097 24.5391L7.37611 24.7773L6.95166 24.6227L7.02097 24.5391Z" fill="white"/>
<path d="M4.97088 22.0995C4.74568 21.8035 4.64751 21.4051 4.76012 21.0933C4.74568 21.4485 4.84384 21.8035 4.97088 22.0995Z" fill="white"/>
<path d="M5.5368 20.728L5.42419 20.9389L5.70571 20.7987L5.5368 20.728Z" fill="white"/>
<path d="M5.73315 21.7096L5.86019 21.7933L5.81832 21.6533L5.73315 21.7096Z" fill="white"/>
<path d="M7.36316 21.652L7.98537 21.5684L7.63023 21.7503L7.36316 21.652Z" fill="white"/>
<path d="M8.60608 22.8647L8.96267 22.5977L8.73745 22.9817L8.60608 22.8647Z" fill="#9B9B9B"/>
<path d="M9.86646 25.7952L10.0917 25.6133L10.2173 25.8096L9.86646 25.7952Z" fill="#9B9B9B"/>
<path d="M10.7976 25.8816L12.2369 24.6387L12.0132 24.9937L10.7976 25.8816Z" fill="white"/>
<path d="M11.2784 21.8682L10.4324 23.0549L10.7298 22.1541L11.0127 21.9578L11.2784 21.8682Z" fill="white"/>
<path d="M12.3077 23.6732L11.5209 24.4729L12.9992 22.934L13.1248 22.8921L12.3077 23.6732Z" fill="white"/>
<path d="M13.1956 25.2033L13.3919 24.9492V25.3188L13.1956 25.2033Z" fill="#9B9B9B"/>
<path d="M14.6637 23.2398L14.8456 23.1128V24.0282L14.6637 23.6022L14.5237 23.7552L14.6637 23.2398Z" fill="#9B9B9B"/>
<path d="M7.65906 17.292L7.57532 16.7001L7.71537 16.6582L7.68793 17.2776L7.65906 17.292Z" fill="#9B9B9B"/>
<path d="M7.16247 16.8877L7.3025 17.0279L6.97913 16.9715L7.16247 16.8877Z" fill="#9B9B9B"/>
<path d="M4.74573 16.56L5.45168 16.5181L4.82946 16.7L4.74573 16.56Z" fill="white"/>
<path d="M3.98779 15.9204L4.226 16.0185L3.98779 16.0879V15.9204Z" fill="white"/>
<path d="M7.18982 14.8726L7.71388 14.5752V14.7152L7.18982 14.8726Z" fill="white"/>
<path d="M7.71387 13.205L7.9824 13.1487L8.06612 12.8369L7.71387 12.9495V13.205Z" fill="#9B9B9B"/>
<path d="M5.3954 18.086L4.70532 18.1842L4.94497 18.0586L5.3954 18.086Z" fill="#9B9B9B"/>
<path d="M6.29761 18.3889L6.58055 18.2344V18.4597L6.29761 18.3889Z" fill="#9B9B9B"/>
<path d="M8.11377 18.6489L7.88855 19.0604L8.20039 18.7932L8.11377 18.6489Z" fill="white"/>
<path d="M9.69458 18.9956L9.89092 19.2063L9.91836 19.01L9.69458 18.9956Z" fill="white"/>
<path d="M11.3043 19.8471L11.954 19.9453L11.6725 19.749L11.3043 19.8471Z" fill="white"/>
<path d="M12.5199 19.6305L12.8606 19.5034L12.748 19.6999L12.5199 19.6305Z" fill="#9B9B9B"/>
<path d="M18.5863 23.572L18.488 22.9932L18.5863 23.1749V23.572Z" fill="white"/>
<path d="M6.81018 20.0928L7.59698 19.6958L7.03106 20.191L6.81018 20.0928Z" fill="white"/>
<path d="M23.7957 12.2906C24.3125 13.369 24.2357 14.801 23.8261 15.9578C23.4165 16.8266 22.2597 17.7946 21.1509 17.9178C19.6805 18.313 18.0645 17.9178 17.1285 16.193C16.5317 14.3754 17.1285 12.3066 18.5989 11.1354C19.3029 10.617 20.7749 10.5082 21.8373 10.8218C22.6933 11.057 23.3829 11.6074 23.7957 12.2906Z" fill="white"/>
<path d="M17.766 12.2461C17.0408 13.2901 17.3292 15.1497 17.8633 16.21C18.4288 17.207 19.3932 17.8555 20.6345 17.8247C21.7936 17.9495 22.9524 17.1438 23.5195 16.2294C24.2779 14.96 23.7899 13.0567 22.8419 11.7402C22.0193 10.9653 21.3566 10.8713 20.4582 11.0123C19.2664 11.1533 18.3003 11.6154 17.766 12.2461Z" fill="white"/>
<path d="M20.4535 10.9725C20.9047 10.9018 21.3009 10.8894 21.6889 10.9941C22.0534 11.0924 22.4075 11.2932 22.7919 11.6399L22.8694 11.7111L22.8721 11.7138L22.8743 11.7169C23.3515 12.3795 23.7131 13.19 23.8599 13.9953C24.0067 14.8004 23.9395 15.6043 23.5539 16.2498L23.5535 16.2505C22.9815 17.1729 21.8107 17.9906 20.6321 17.8647C19.3759 17.8946 18.3998 17.237 17.8286 16.2297L17.8276 16.2281C17.558 15.6928 17.351 14.9575 17.3025 14.2246C17.2539 13.4923 17.3633 12.7559 17.7332 12.2233L17.7343 12.2216L17.7356 12.2202C18.2614 11.5995 19.1947 11.1437 20.3419 10.9869L20.4535 10.9725ZM21.6681 11.0714C21.295 10.9708 20.911 10.9818 20.4644 11.0519L20.4628 11.052C19.2787 11.1922 18.3239 11.6505 17.7979 12.2702C17.4433 12.7815 17.3343 13.4963 17.3823 14.2192C17.4302 14.9417 17.6342 15.6662 17.8985 16.1913C18.4577 17.1765 19.4092 17.8149 20.6335 17.7847H20.6363L20.6388 17.785C21.7779 17.9076 22.9236 17.1143 23.4854 16.2082C23.8579 15.5846 23.9257 14.8023 23.7812 14.0096C23.6369 13.2181 23.2814 12.4201 22.8116 11.7669C22.4049 11.3842 22.0401 11.1718 21.6681 11.0714Z" fill="#111111"/>
<path d="M23.2677 12.2438C23.9717 13.2742 23.6917 15.1094 23.1733 16.1558C22.6245 17.1398 21.6885 17.7798 20.4837 17.7494C19.3589 17.8726 18.2341 17.0774 17.6837 16.175C16.9477 14.9222 17.4213 13.0438 18.3413 11.7446C19.1397 10.9798 19.7829 10.887 20.6549 11.0262C21.8117 11.1654 22.7493 11.6214 23.2677 12.2438Z" fill="white"/>
<path d="M19.46 11.0078C19.8373 10.9043 20.2226 10.9167 20.6613 10.9867C21.7877 11.1225 22.7122 11.5576 23.2478 12.1595L23.2984 12.2183L23.2997 12.2197L23.3008 12.2212C23.6598 12.7469 23.7659 13.4738 23.7189 14.1964C23.6717 14.9197 23.4709 15.6454 23.2091 16.1735L23.2082 16.1753C22.6538 17.1695 21.7061 17.8188 20.4861 17.7894C19.3414 17.9137 18.2046 17.106 17.6494 16.1959L17.6491 16.1953C17.2749 15.5581 17.2096 14.7647 17.3522 13.9701C17.4947 13.1753 17.8456 12.3755 18.3086 11.7215L18.3109 11.7184L18.3136 11.7158C18.7162 11.3301 19.0822 11.1114 19.46 11.0078ZM20.6485 11.0658C20.2152 10.9966 19.8429 10.9857 19.4811 11.085C19.1203 11.184 18.7662 11.3935 18.3714 11.7712C17.9157 12.4158 17.5709 13.2034 17.4309 13.9844C17.2906 14.767 17.3566 15.5393 17.7182 16.1548C18.2637 17.0487 19.3752 17.8307 20.4794 17.7097L20.4819 17.7094H20.4846C21.672 17.7393 22.5949 17.1097 23.1376 16.1375C23.3942 15.6193 23.5925 14.9044 23.639 14.1912C23.6854 13.4775 23.5795 12.7719 23.2352 12.2673C22.725 11.6562 21.799 11.2042 20.6501 11.0659L20.6485 11.0658Z" fill="#111111"/>
<path d="M20.6917 13.8471C20.9253 14.3031 20.9717 14.6487 20.6757 14.9447C20.2037 15.2407 19.5445 15.6359 19.0421 15.4487C18.5541 15.2631 18.0981 14.4663 18.1909 14.1031C18.2837 13.7751 19.0037 13.1191 19.2229 13.0247C19.4869 12.9319 19.8341 13.0407 19.9429 13.2743C20.2389 13.4759 20.5045 13.6151 20.6917 13.8471Z" fill="#111111"/>
<path d="M8.23035 12.8066C9.0511 11.355 10.2592 10.3851 11.9463 10.4711C13.3948 10.7023 14.4143 11.904 14.568 13.475L14.5683 13.4769C14.6446 14.0063 14.6439 14.7472 14.5077 15.1953C14.3275 15.6121 14.0331 16.1025 13.6961 16.5337C13.358 16.9667 12.9804 17.3355 12.6361 17.5124C11.4158 18.0696 9.88458 17.8398 8.89739 16.8209L8.89691 16.8204C7.87584 15.801 7.50371 14.1829 8.23051 12.8068L8.23035 12.8066Z" fill="white"/>
<path d="M11.6543 10.895C12.1562 10.895 12.6471 11.1538 13.076 11.4913C13.5041 11.8281 13.8655 12.2395 14.108 12.5363C14.3591 12.8703 14.4569 13.3799 14.4846 13.8575C14.5121 14.3317 14.47 14.7664 14.4469 14.9482C14.378 15.2599 14.1052 15.7627 13.7676 16.2395C13.4311 16.7147 13.037 17.1546 12.7294 17.3482C11.9813 17.5847 10.7675 17.5339 9.76445 17.0515L9.66789 17.0034L9.66616 17.0027L9.60976 16.9759C9.03254 16.6903 8.60118 16.1386 8.36491 15.4742C8.12869 14.81 8.08861 14.0361 8.29131 13.311L8.31179 13.241L8.31226 13.2391C8.62114 12.0068 9.87146 10.895 11.6543 10.895Z" fill="white"/>
<path d="M11.6545 10.855C12.1696 10.855 12.6693 11.1202 13.1009 11.4598C13.4785 11.7569 13.804 12.111 14.0424 12.3942L14.1391 12.5109L14.1401 12.5122C14.3986 12.8562 14.4969 13.3759 14.5246 13.8551C14.5523 14.3326 14.5101 14.7699 14.4868 14.9531L14.4865 14.955L14.4862 14.9567C14.4154 15.2767 14.1383 15.7851 13.8002 16.2627C13.4632 16.7387 13.0654 17.184 12.7509 17.3821L12.7465 17.3846L12.7416 17.3862C11.9832 17.6259 10.7588 17.5739 9.74726 17.0875L9.74665 17.0873L9.6507 17.0395L9.64899 17.0389L9.59257 17.012L9.59213 17.0117C9.00355 16.7205 8.56619 16.1593 8.32728 15.4876C8.08837 14.8159 8.0479 14.0335 8.25289 13.3001L8.25304 13.2997L8.27304 13.2312L8.27353 13.2294L8.28899 13.1708C8.62696 11.9433 9.88262 10.855 11.6545 10.855ZM11.6545 10.935C9.91635 10.935 8.69387 12.0013 8.36601 13.192L8.35117 13.2487L8.3507 13.2506L8.35025 13.2522L8.32976 13.3215L8.32992 13.3217C8.1295 14.0387 8.1692 14.8041 8.40273 15.4608C8.63629 16.1174 9.06142 16.6597 9.62697 16.9397L9.68257 16.9661L9.68398 16.9665L9.78181 17.0155C10.7741 17.4926 11.9744 17.5429 12.7126 17.3113C13.0126 17.1208 13.4009 16.6885 13.7351 16.2165C14.0717 15.7409 14.34 15.2445 14.4076 14.9409C14.4306 14.7593 14.472 14.3288 14.4448 13.8598C14.4172 13.3843 14.32 12.8857 14.0771 12.5615L13.981 12.4456C13.7444 12.1645 13.4229 11.815 13.0513 11.5226C12.6252 11.1873 12.1431 10.935 11.6545 10.935Z" fill="#111111"/>
<path d="M11.0735 10.9976C10.5721 10.9976 10.082 11.2461 9.65411 11.5697C9.22745 11.8925 8.86725 12.2865 8.62521 12.5711H8.62505C8.37427 12.8912 8.27661 13.3799 8.24896 13.8385C8.22155 14.2933 8.26358 14.7102 8.28662 14.8844C8.3207 15.0323 8.40496 15.2268 8.52411 15.4427C8.64329 15.6587 8.79595 15.8939 8.96397 16.1221C9.29963 16.5779 9.69281 16.9998 9.99974 17.1856C10.7709 17.42 12.0375 17.3606 13.0565 16.8549L13.0582 16.8541L13.1144 16.8285C14.286 16.2712 14.8529 14.657 14.4094 13.2477L14.4088 13.2457C14.1009 12.0649 12.8538 10.9976 11.0735 10.9976Z" fill="white"/>
<path d="M11.0735 10.9575C12.8691 10.9575 14.1333 12.0342 14.4471 13.2339L14.4475 13.2356C14.8956 14.6593 14.3253 16.2967 13.1316 16.8646L13.131 16.8649L13.0747 16.8905L13.0746 16.8903L13.0735 16.8911L13.0733 16.891C12.0458 17.4006 10.7692 17.4612 9.98816 17.2238L9.98332 17.2223L9.97911 17.2198C9.66519 17.0297 9.2681 16.6025 8.93176 16.1459C8.7629 15.9165 8.60925 15.6798 8.48911 15.462C8.3693 15.2449 8.28301 15.0466 8.2477 14.8933L8.24722 14.8916L8.24708 14.8896C8.22384 14.7139 8.18149 14.2943 8.20911 13.8361C8.23685 13.3758 8.33498 12.8765 8.59364 12.5464L8.60567 12.5311H8.60692C8.84948 12.2468 9.207 11.8579 9.63004 11.5378C10.0608 11.212 10.5593 10.9575 11.0735 10.9575ZM11.0735 11.0375C10.5849 11.0375 10.1034 11.28 9.67832 11.6016C9.25512 11.9217 8.89703 12.3132 8.65567 12.597C8.41348 12.907 8.31645 13.3846 8.28895 13.8408C8.26189 14.2898 8.30306 14.7021 8.32597 14.8764C8.35898 15.0189 8.44104 15.2091 8.55925 15.4233C8.67748 15.6375 8.82912 15.8713 8.99629 16.0983C9.32967 16.551 9.71695 16.9657 10.0163 17.1486C10.7777 17.3782 12.0308 17.3193 13.0388 16.819L13.0396 16.8187L13.0413 16.8179L13.0416 16.8177L13.0979 16.7921C14.2469 16.2451 14.8102 14.6544 14.3713 13.2597V13.2594L14.3707 13.2574L14.37 13.2558C14.0672 12.0947 12.8377 11.0375 11.0735 11.0375Z" fill="#111111"/>
<path d="M13.0768 13.476C13.3264 13.932 13.3568 14.9144 13.0096 15.2408C12.7296 15.396 12.288 15.708 11.8624 15.5688C11.2976 15.3512 10.872 15.132 10.7792 14.476C10.7792 13.9416 11.0752 13.4552 11.4384 13.252C11.7184 13.2216 11.8752 13.2072 12.1088 13.068C12.5184 12.9912 12.8592 13.068 13.0768 13.476Z" fill="#111111"/>
</svg>
