<svg width="24" height="24" viewBox="0 0 24 24" fill="none" xmlns="http://www.w3.org/2000/svg">
<path d="M8.95678 17.5001C8.48278 17.5001 8.07986 17.3341 7.74803 17.0021C7.41603 16.6703 7.25003 16.2674 7.25003 15.7934V4.4089C7.25003 3.9349 7.41603 3.5319 7.74803 3.1999C8.07986 2.86806 8.48278 2.70215 8.95678 2.70215H17.3413C17.8153 2.70215 18.2183 2.86806 18.5503 3.1999C18.8821 3.5319 19.048 3.9349 19.048 4.4089V15.7934C19.048 16.2674 18.8821 16.6703 18.5503 17.0021C18.2183 17.3341 17.8153 17.5001 17.3413 17.5001H8.95678ZM8.95678 16.1011H17.3413C17.4183 16.1011 17.4888 16.0691 17.5528 16.0049C17.6169 15.9409 17.649 15.8704 17.649 15.7934V4.4089C17.649 4.3319 17.6169 4.26131 17.5528 4.19715C17.4888 4.13315 17.4183 4.10115 17.3413 4.10115H8.95678C8.87978 4.10115 8.80928 4.13315 8.74528 4.19715C8.68111 4.26131 8.64903 4.3319 8.64903 4.4089V15.7934C8.64903 15.8704 8.68111 15.9409 8.74528 16.0049C8.80928 16.0691 8.87978 16.1011 8.95678 16.1011ZM5.65878 20.7981C5.18478 20.7981 4.78178 20.6321 4.44978 20.3001C4.11794 19.9683 3.95203 19.5654 3.95203 19.0914V6.3079H5.35103V19.0914C5.35103 19.1684 5.38311 19.2389 5.44728 19.3029C5.51128 19.3671 5.58178 19.3991 5.65878 19.3991H15.4423V20.7981H5.65878Z" fill="#D2D9D8"/>
</svg>
